<?xml version="1.0" encoding="utf-8" standalone="no"?>
<!DOCTYPE svg PUBLIC "-//W3C//DTD SVG 1.1//EN"
  "http://www.w3.org/Graphics/SVG/1.1/DTD/svg11.dtd">
<!-- Created with matplotlib (https://matplotlib.org/) -->
<svg height="288pt" version="1.1" viewBox="0 0 432 288" width="432pt" xmlns="http://www.w3.org/2000/svg" xmlns:xlink="http://www.w3.org/1999/xlink">
 <metadata>
  <rdf:RDF xmlns:cc="http://creativecommons.org/ns#" xmlns:dc="http://purl.org/dc/elements/1.1/" xmlns:rdf="http://www.w3.org/1999/02/22-rdf-syntax-ns#">
   <cc:Work>
    <dc:type rdf:resource="http://purl.org/dc/dcmitype/StillImage"/>
    <dc:date>2021-02-21T22:08:01.179618</dc:date>
    <dc:format>image/svg+xml</dc:format>
    <dc:creator>
     <cc:Agent>
      <dc:title>Matplotlib v3.3.4, https://matplotlib.org/</dc:title>
     </cc:Agent>
    </dc:creator>
   </cc:Work>
  </rdf:RDF>
 </metadata>
 <defs>
  <style type="text/css">*{stroke-linecap:butt;stroke-linejoin:round;}</style>
 </defs>
 <g id="figure_1">
  <g id="patch_1">
   <path d="M 0 288 
L 432 288 
L 432 0 
L 0 0 
z
" style="fill:none;"/>
  </g>
  <g id="axes_1">
   <g id="patch_2">
    <path d="M 54 252 
L 388.8 252 
L 388.8 34.56 
L 54 34.56 
z
" style="fill:#ffffff;"/>
   </g>
   <g id="matplotlib.axis_1">
    <g id="xtick_1">
     <g id="line2d_1">
      <defs>
       <path d="M 0 0 
L 0 3.5 
" id="m69800cf9ff" style="stroke:#000000;stroke-width:0.8;"/>
      </defs>
      <g>
       <use style="stroke:#000000;stroke-width:0.8;" x="69.218182" xlink:href="#m69800cf9ff" y="252"/>
      </g>
     </g>
     <g id="text_1">
      <!-- 0.00 -->
      <g transform="translate(58.085369 266.598437)scale(0.1 -0.1)">
       <defs>
        <path d="M 31.78125 66.40625 
Q 24.171875 66.40625 20.328125 58.90625 
Q 16.5 51.421875 16.5 36.375 
Q 16.5 21.390625 20.328125 13.890625 
Q 24.171875 6.390625 31.78125 6.390625 
Q 39.453125 6.390625 43.28125 13.890625 
Q 47.125 21.390625 47.125 36.375 
Q 47.125 51.421875 43.28125 58.90625 
Q 39.453125 66.40625 31.78125 66.40625 
z
M 31.78125 74.21875 
Q 44.046875 74.21875 50.515625 64.515625 
Q 56.984375 54.828125 56.984375 36.375 
Q 56.984375 17.96875 50.515625 8.265625 
Q 44.046875 -1.421875 31.78125 -1.421875 
Q 19.53125 -1.421875 13.0625 8.265625 
Q 6.59375 17.96875 6.59375 36.375 
Q 6.59375 54.828125 13.0625 64.515625 
Q 19.53125 74.21875 31.78125 74.21875 
z
" id="DejaVuSans-48"/>
        <path d="M 10.6875 12.40625 
L 21 12.40625 
L 21 0 
L 10.6875 0 
z
" id="DejaVuSans-46"/>
       </defs>
       <use xlink:href="#DejaVuSans-48"/>
       <use x="63.623047" xlink:href="#DejaVuSans-46"/>
       <use x="95.410156" xlink:href="#DejaVuSans-48"/>
       <use x="159.033203" xlink:href="#DejaVuSans-48"/>
      </g>
     </g>
    </g>
    <g id="xtick_2">
     <g id="line2d_2">
      <g>
       <use style="stroke:#000000;stroke-width:0.8;" x="107.647934" xlink:href="#m69800cf9ff" y="252"/>
      </g>
     </g>
     <g id="text_2">
      <!-- 0.25 -->
      <g transform="translate(96.515121 266.598437)scale(0.1 -0.1)">
       <defs>
        <path d="M 19.1875 8.296875 
L 53.609375 8.296875 
L 53.609375 0 
L 7.328125 0 
L 7.328125 8.296875 
Q 12.9375 14.109375 22.625 23.890625 
Q 32.328125 33.6875 34.8125 36.53125 
Q 39.546875 41.84375 41.421875 45.53125 
Q 43.3125 49.21875 43.3125 52.78125 
Q 43.3125 58.59375 39.234375 62.25 
Q 35.15625 65.921875 28.609375 65.921875 
Q 23.96875 65.921875 18.8125 64.3125 
Q 13.671875 62.703125 7.8125 59.421875 
L 7.8125 69.390625 
Q 13.765625 71.78125 18.9375 73 
Q 24.125 74.21875 28.421875 74.21875 
Q 39.75 74.21875 46.484375 68.546875 
Q 53.21875 62.890625 53.21875 53.421875 
Q 53.21875 48.921875 51.53125 44.890625 
Q 49.859375 40.875 45.40625 35.40625 
Q 44.1875 33.984375 37.640625 27.21875 
Q 31.109375 20.453125 19.1875 8.296875 
z
" id="DejaVuSans-50"/>
        <path d="M 10.796875 72.90625 
L 49.515625 72.90625 
L 49.515625 64.59375 
L 19.828125 64.59375 
L 19.828125 46.734375 
Q 21.96875 47.46875 24.109375 47.828125 
Q 26.265625 48.1875 28.421875 48.1875 
Q 40.625 48.1875 47.75 41.5 
Q 54.890625 34.8125 54.890625 23.390625 
Q 54.890625 11.625 47.5625 5.09375 
Q 40.234375 -1.421875 26.90625 -1.421875 
Q 22.3125 -1.421875 17.546875 -0.640625 
Q 12.796875 0.140625 7.71875 1.703125 
L 7.71875 11.625 
Q 12.109375 9.234375 16.796875 8.0625 
Q 21.484375 6.890625 26.703125 6.890625 
Q 35.15625 6.890625 40.078125 11.328125 
Q 45.015625 15.765625 45.015625 23.390625 
Q 45.015625 31 40.078125 35.4375 
Q 35.15625 39.890625 26.703125 39.890625 
Q 22.75 39.890625 18.8125 39.015625 
Q 14.890625 38.140625 10.796875 36.28125 
z
" id="DejaVuSans-53"/>
       </defs>
       <use xlink:href="#DejaVuSans-48"/>
       <use x="63.623047" xlink:href="#DejaVuSans-46"/>
       <use x="95.410156" xlink:href="#DejaVuSans-50"/>
       <use x="159.033203" xlink:href="#DejaVuSans-53"/>
      </g>
     </g>
    </g>
    <g id="xtick_3">
     <g id="line2d_3">
      <g>
       <use style="stroke:#000000;stroke-width:0.8;" x="146.077686" xlink:href="#m69800cf9ff" y="252"/>
      </g>
     </g>
     <g id="text_3">
      <!-- 0.50 -->
      <g transform="translate(134.944873 266.598437)scale(0.1 -0.1)">
       <use xlink:href="#DejaVuSans-48"/>
       <use x="63.623047" xlink:href="#DejaVuSans-46"/>
       <use x="95.410156" xlink:href="#DejaVuSans-53"/>
       <use x="159.033203" xlink:href="#DejaVuSans-48"/>
      </g>
     </g>
    </g>
    <g id="xtick_4">
     <g id="line2d_4">
      <g>
       <use style="stroke:#000000;stroke-width:0.8;" x="184.507438" xlink:href="#m69800cf9ff" y="252"/>
      </g>
     </g>
     <g id="text_4">
      <!-- 0.75 -->
      <g transform="translate(173.374626 266.598437)scale(0.1 -0.1)">
       <defs>
        <path d="M 8.203125 72.90625 
L 55.078125 72.90625 
L 55.078125 68.703125 
L 28.609375 0 
L 18.3125 0 
L 43.21875 64.59375 
L 8.203125 64.59375 
z
" id="DejaVuSans-55"/>
       </defs>
       <use xlink:href="#DejaVuSans-48"/>
       <use x="63.623047" xlink:href="#DejaVuSans-46"/>
       <use x="95.410156" xlink:href="#DejaVuSans-55"/>
       <use x="159.033203" xlink:href="#DejaVuSans-53"/>
      </g>
     </g>
    </g>
    <g id="xtick_5">
     <g id="line2d_5">
      <g>
       <use style="stroke:#000000;stroke-width:0.8;" x="222.93719" xlink:href="#m69800cf9ff" y="252"/>
      </g>
     </g>
     <g id="text_5">
      <!-- 1.00 -->
      <g transform="translate(211.804378 266.598437)scale(0.1 -0.1)">
       <defs>
        <path d="M 12.40625 8.296875 
L 28.515625 8.296875 
L 28.515625 63.921875 
L 10.984375 60.40625 
L 10.984375 69.390625 
L 28.421875 72.90625 
L 38.28125 72.90625 
L 38.28125 8.296875 
L 54.390625 8.296875 
L 54.390625 0 
L 12.40625 0 
z
" id="DejaVuSans-49"/>
       </defs>
       <use xlink:href="#DejaVuSans-49"/>
       <use x="63.623047" xlink:href="#DejaVuSans-46"/>
       <use x="95.410156" xlink:href="#DejaVuSans-48"/>
       <use x="159.033203" xlink:href="#DejaVuSans-48"/>
      </g>
     </g>
    </g>
    <g id="xtick_6">
     <g id="line2d_6">
      <g>
       <use style="stroke:#000000;stroke-width:0.8;" x="261.366942" xlink:href="#m69800cf9ff" y="252"/>
      </g>
     </g>
     <g id="text_6">
      <!-- 1.25 -->
      <g transform="translate(250.23413 266.598437)scale(0.1 -0.1)">
       <use xlink:href="#DejaVuSans-49"/>
       <use x="63.623047" xlink:href="#DejaVuSans-46"/>
       <use x="95.410156" xlink:href="#DejaVuSans-50"/>
       <use x="159.033203" xlink:href="#DejaVuSans-53"/>
      </g>
     </g>
    </g>
    <g id="xtick_7">
     <g id="line2d_7">
      <g>
       <use style="stroke:#000000;stroke-width:0.8;" x="299.796694" xlink:href="#m69800cf9ff" y="252"/>
      </g>
     </g>
     <g id="text_7">
      <!-- 1.50 -->
      <g transform="translate(288.663882 266.598437)scale(0.1 -0.1)">
       <use xlink:href="#DejaVuSans-49"/>
       <use x="63.623047" xlink:href="#DejaVuSans-46"/>
       <use x="95.410156" xlink:href="#DejaVuSans-53"/>
       <use x="159.033203" xlink:href="#DejaVuSans-48"/>
      </g>
     </g>
    </g>
    <g id="xtick_8">
     <g id="line2d_8">
      <g>
       <use style="stroke:#000000;stroke-width:0.8;" x="338.226446" xlink:href="#m69800cf9ff" y="252"/>
      </g>
     </g>
     <g id="text_8">
      <!-- 1.75 -->
      <g transform="translate(327.093634 266.598437)scale(0.1 -0.1)">
       <use xlink:href="#DejaVuSans-49"/>
       <use x="63.623047" xlink:href="#DejaVuSans-46"/>
       <use x="95.410156" xlink:href="#DejaVuSans-55"/>
       <use x="159.033203" xlink:href="#DejaVuSans-53"/>
      </g>
     </g>
    </g>
    <g id="xtick_9">
     <g id="line2d_9">
      <g>
       <use style="stroke:#000000;stroke-width:0.8;" x="376.656198" xlink:href="#m69800cf9ff" y="252"/>
      </g>
     </g>
     <g id="text_9">
      <!-- 2.00 -->
      <g transform="translate(365.523386 266.598437)scale(0.1 -0.1)">
       <use xlink:href="#DejaVuSans-50"/>
       <use x="63.623047" xlink:href="#DejaVuSans-46"/>
       <use x="95.410156" xlink:href="#DejaVuSans-48"/>
       <use x="159.033203" xlink:href="#DejaVuSans-48"/>
      </g>
     </g>
    </g>
    <g id="text_10">
     <!-- time (s) -->
     <g transform="translate(202.008594 280.276563)scale(0.1 -0.1)">
      <defs>
       <path d="M 18.3125 70.21875 
L 18.3125 54.6875 
L 36.8125 54.6875 
L 36.8125 47.703125 
L 18.3125 47.703125 
L 18.3125 18.015625 
Q 18.3125 11.328125 20.140625 9.421875 
Q 21.96875 7.515625 27.59375 7.515625 
L 36.8125 7.515625 
L 36.8125 0 
L 27.59375 0 
Q 17.1875 0 13.234375 3.875 
Q 9.28125 7.765625 9.28125 18.015625 
L 9.28125 47.703125 
L 2.6875 47.703125 
L 2.6875 54.6875 
L 9.28125 54.6875 
L 9.28125 70.21875 
z
" id="DejaVuSans-116"/>
       <path d="M 9.421875 54.6875 
L 18.40625 54.6875 
L 18.40625 0 
L 9.421875 0 
z
M 9.421875 75.984375 
L 18.40625 75.984375 
L 18.40625 64.59375 
L 9.421875 64.59375 
z
" id="DejaVuSans-105"/>
       <path d="M 52 44.1875 
Q 55.375 50.25 60.0625 53.125 
Q 64.75 56 71.09375 56 
Q 79.640625 56 84.28125 50.015625 
Q 88.921875 44.046875 88.921875 33.015625 
L 88.921875 0 
L 79.890625 0 
L 79.890625 32.71875 
Q 79.890625 40.578125 77.09375 44.375 
Q 74.3125 48.1875 68.609375 48.1875 
Q 61.625 48.1875 57.5625 43.546875 
Q 53.515625 38.921875 53.515625 30.90625 
L 53.515625 0 
L 44.484375 0 
L 44.484375 32.71875 
Q 44.484375 40.625 41.703125 44.40625 
Q 38.921875 48.1875 33.109375 48.1875 
Q 26.21875 48.1875 22.15625 43.53125 
Q 18.109375 38.875 18.109375 30.90625 
L 18.109375 0 
L 9.078125 0 
L 9.078125 54.6875 
L 18.109375 54.6875 
L 18.109375 46.1875 
Q 21.1875 51.21875 25.484375 53.609375 
Q 29.78125 56 35.6875 56 
Q 41.65625 56 45.828125 52.96875 
Q 50 49.953125 52 44.1875 
z
" id="DejaVuSans-109"/>
       <path d="M 56.203125 29.59375 
L 56.203125 25.203125 
L 14.890625 25.203125 
Q 15.484375 15.921875 20.484375 11.0625 
Q 25.484375 6.203125 34.421875 6.203125 
Q 39.59375 6.203125 44.453125 7.46875 
Q 49.3125 8.734375 54.109375 11.28125 
L 54.109375 2.78125 
Q 49.265625 0.734375 44.1875 -0.34375 
Q 39.109375 -1.421875 33.890625 -1.421875 
Q 20.796875 -1.421875 13.15625 6.1875 
Q 5.515625 13.8125 5.515625 26.8125 
Q 5.515625 40.234375 12.765625 48.109375 
Q 20.015625 56 32.328125 56 
Q 43.359375 56 49.78125 48.890625 
Q 56.203125 41.796875 56.203125 29.59375 
z
M 47.21875 32.234375 
Q 47.125 39.59375 43.09375 43.984375 
Q 39.0625 48.390625 32.421875 48.390625 
Q 24.90625 48.390625 20.390625 44.140625 
Q 15.875 39.890625 15.1875 32.171875 
z
" id="DejaVuSans-101"/>
       <path id="DejaVuSans-32"/>
       <path d="M 31 75.875 
Q 24.46875 64.65625 21.28125 53.65625 
Q 18.109375 42.671875 18.109375 31.390625 
Q 18.109375 20.125 21.3125 9.0625 
Q 24.515625 -2 31 -13.1875 
L 23.1875 -13.1875 
Q 15.875 -1.703125 12.234375 9.375 
Q 8.59375 20.453125 8.59375 31.390625 
Q 8.59375 42.28125 12.203125 53.3125 
Q 15.828125 64.359375 23.1875 75.875 
z
" id="DejaVuSans-40"/>
       <path d="M 44.28125 53.078125 
L 44.28125 44.578125 
Q 40.484375 46.53125 36.375 47.5 
Q 32.28125 48.484375 27.875 48.484375 
Q 21.1875 48.484375 17.84375 46.4375 
Q 14.5 44.390625 14.5 40.28125 
Q 14.5 37.15625 16.890625 35.375 
Q 19.28125 33.59375 26.515625 31.984375 
L 29.59375 31.296875 
Q 39.15625 29.25 43.1875 25.515625 
Q 47.21875 21.78125 47.21875 15.09375 
Q 47.21875 7.46875 41.1875 3.015625 
Q 35.15625 -1.421875 24.609375 -1.421875 
Q 20.21875 -1.421875 15.453125 -0.5625 
Q 10.6875 0.296875 5.421875 2 
L 5.421875 11.28125 
Q 10.40625 8.6875 15.234375 7.390625 
Q 20.0625 6.109375 24.8125 6.109375 
Q 31.15625 6.109375 34.5625 8.28125 
Q 37.984375 10.453125 37.984375 14.40625 
Q 37.984375 18.0625 35.515625 20.015625 
Q 33.0625 21.96875 24.703125 23.78125 
L 21.578125 24.515625 
Q 13.234375 26.265625 9.515625 29.90625 
Q 5.8125 33.546875 5.8125 39.890625 
Q 5.8125 47.609375 11.28125 51.796875 
Q 16.75 56 26.8125 56 
Q 31.78125 56 36.171875 55.265625 
Q 40.578125 54.546875 44.28125 53.078125 
z
" id="DejaVuSans-115"/>
       <path d="M 8.015625 75.875 
L 15.828125 75.875 
Q 23.140625 64.359375 26.78125 53.3125 
Q 30.421875 42.28125 30.421875 31.390625 
Q 30.421875 20.453125 26.78125 9.375 
Q 23.140625 -1.703125 15.828125 -13.1875 
L 8.015625 -13.1875 
Q 14.5 -2 17.703125 9.0625 
Q 20.90625 20.125 20.90625 31.390625 
Q 20.90625 42.671875 17.703125 53.65625 
Q 14.5 64.65625 8.015625 75.875 
z
" id="DejaVuSans-41"/>
      </defs>
      <use xlink:href="#DejaVuSans-116"/>
      <use x="39.208984" xlink:href="#DejaVuSans-105"/>
      <use x="66.992188" xlink:href="#DejaVuSans-109"/>
      <use x="164.404297" xlink:href="#DejaVuSans-101"/>
      <use x="225.927734" xlink:href="#DejaVuSans-32"/>
      <use x="257.714844" xlink:href="#DejaVuSans-40"/>
      <use x="296.728516" xlink:href="#DejaVuSans-115"/>
      <use x="348.828125" xlink:href="#DejaVuSans-41"/>
     </g>
    </g>
    <g id="text_11">
     <!-- 1e−7 -->
     <g transform="translate(361.542188 279.276563)scale(0.1 -0.1)">
      <defs>
       <path d="M 10.59375 35.5 
L 73.1875 35.5 
L 73.1875 27.203125 
L 10.59375 27.203125 
z
" id="DejaVuSans-8722"/>
      </defs>
      <use xlink:href="#DejaVuSans-49"/>
      <use x="63.623047" xlink:href="#DejaVuSans-101"/>
      <use x="125.146484" xlink:href="#DejaVuSans-8722"/>
      <use x="208.935547" xlink:href="#DejaVuSans-55"/>
     </g>
    </g>
   </g>
   <g id="matplotlib.axis_2">
    <g id="ytick_1">
     <g id="line2d_10">
      <defs>
       <path d="M 0 0 
L -3.5 0 
" id="m72368a6ea7" style="stroke:#000000;stroke-width:0.8;"/>
      </defs>
      <g>
       <use style="stroke:#000000;stroke-width:0.8;" x="54" xlink:href="#m72368a6ea7" y="242.116364"/>
      </g>
     </g>
     <g id="text_12">
      <!-- 0.0 -->
      <g transform="translate(31.096875 245.915582)scale(0.1 -0.1)">
       <use xlink:href="#DejaVuSans-48"/>
       <use x="63.623047" xlink:href="#DejaVuSans-46"/>
       <use x="95.410156" xlink:href="#DejaVuSans-48"/>
      </g>
     </g>
    </g>
    <g id="ytick_2">
     <g id="line2d_11">
      <g>
       <use style="stroke:#000000;stroke-width:0.8;" x="54" xlink:href="#m72368a6ea7" y="200.738699"/>
      </g>
     </g>
     <g id="text_13">
      <!-- 0.2 -->
      <g transform="translate(31.096875 204.537918)scale(0.1 -0.1)">
       <use xlink:href="#DejaVuSans-48"/>
       <use x="63.623047" xlink:href="#DejaVuSans-46"/>
       <use x="95.410156" xlink:href="#DejaVuSans-50"/>
      </g>
     </g>
    </g>
    <g id="ytick_3">
     <g id="line2d_12">
      <g>
       <use style="stroke:#000000;stroke-width:0.8;" x="54" xlink:href="#m72368a6ea7" y="159.361034"/>
      </g>
     </g>
     <g id="text_14">
      <!-- 0.4 -->
      <g transform="translate(31.096875 163.160253)scale(0.1 -0.1)">
       <defs>
        <path d="M 37.796875 64.3125 
L 12.890625 25.390625 
L 37.796875 25.390625 
z
M 35.203125 72.90625 
L 47.609375 72.90625 
L 47.609375 25.390625 
L 58.015625 25.390625 
L 58.015625 17.1875 
L 47.609375 17.1875 
L 47.609375 0 
L 37.796875 0 
L 37.796875 17.1875 
L 4.890625 17.1875 
L 4.890625 26.703125 
z
" id="DejaVuSans-52"/>
       </defs>
       <use xlink:href="#DejaVuSans-48"/>
       <use x="63.623047" xlink:href="#DejaVuSans-46"/>
       <use x="95.410156" xlink:href="#DejaVuSans-52"/>
      </g>
     </g>
    </g>
    <g id="ytick_4">
     <g id="line2d_13">
      <g>
       <use style="stroke:#000000;stroke-width:0.8;" x="54" xlink:href="#m72368a6ea7" y="117.98337"/>
      </g>
     </g>
     <g id="text_15">
      <!-- 0.6 -->
      <g transform="translate(31.096875 121.782588)scale(0.1 -0.1)">
       <defs>
        <path d="M 33.015625 40.375 
Q 26.375 40.375 22.484375 35.828125 
Q 18.609375 31.296875 18.609375 23.390625 
Q 18.609375 15.53125 22.484375 10.953125 
Q 26.375 6.390625 33.015625 6.390625 
Q 39.65625 6.390625 43.53125 10.953125 
Q 47.40625 15.53125 47.40625 23.390625 
Q 47.40625 31.296875 43.53125 35.828125 
Q 39.65625 40.375 33.015625 40.375 
z
M 52.59375 71.296875 
L 52.59375 62.3125 
Q 48.875 64.0625 45.09375 64.984375 
Q 41.3125 65.921875 37.59375 65.921875 
Q 27.828125 65.921875 22.671875 59.328125 
Q 17.53125 52.734375 16.796875 39.40625 
Q 19.671875 43.65625 24.015625 45.921875 
Q 28.375 48.1875 33.59375 48.1875 
Q 44.578125 48.1875 50.953125 41.515625 
Q 57.328125 34.859375 57.328125 23.390625 
Q 57.328125 12.15625 50.6875 5.359375 
Q 44.046875 -1.421875 33.015625 -1.421875 
Q 20.359375 -1.421875 13.671875 8.265625 
Q 6.984375 17.96875 6.984375 36.375 
Q 6.984375 53.65625 15.1875 63.9375 
Q 23.390625 74.21875 37.203125 74.21875 
Q 40.921875 74.21875 44.703125 73.484375 
Q 48.484375 72.75 52.59375 71.296875 
z
" id="DejaVuSans-54"/>
       </defs>
       <use xlink:href="#DejaVuSans-48"/>
       <use x="63.623047" xlink:href="#DejaVuSans-46"/>
       <use x="95.410156" xlink:href="#DejaVuSans-54"/>
      </g>
     </g>
    </g>
    <g id="ytick_5">
     <g id="line2d_14">
      <g>
       <use style="stroke:#000000;stroke-width:0.8;" x="54" xlink:href="#m72368a6ea7" y="76.605705"/>
      </g>
     </g>
     <g id="text_16">
      <!-- 0.8 -->
      <g transform="translate(31.096875 80.404924)scale(0.1 -0.1)">
       <defs>
        <path d="M 31.78125 34.625 
Q 24.75 34.625 20.71875 30.859375 
Q 16.703125 27.09375 16.703125 20.515625 
Q 16.703125 13.921875 20.71875 10.15625 
Q 24.75 6.390625 31.78125 6.390625 
Q 38.8125 6.390625 42.859375 10.171875 
Q 46.921875 13.96875 46.921875 20.515625 
Q 46.921875 27.09375 42.890625 30.859375 
Q 38.875 34.625 31.78125 34.625 
z
M 21.921875 38.8125 
Q 15.578125 40.375 12.03125 44.71875 
Q 8.5 49.078125 8.5 55.328125 
Q 8.5 64.0625 14.71875 69.140625 
Q 20.953125 74.21875 31.78125 74.21875 
Q 42.671875 74.21875 48.875 69.140625 
Q 55.078125 64.0625 55.078125 55.328125 
Q 55.078125 49.078125 51.53125 44.71875 
Q 48 40.375 41.703125 38.8125 
Q 48.828125 37.15625 52.796875 32.3125 
Q 56.78125 27.484375 56.78125 20.515625 
Q 56.78125 9.90625 50.3125 4.234375 
Q 43.84375 -1.421875 31.78125 -1.421875 
Q 19.734375 -1.421875 13.25 4.234375 
Q 6.78125 9.90625 6.78125 20.515625 
Q 6.78125 27.484375 10.78125 32.3125 
Q 14.796875 37.15625 21.921875 38.8125 
z
M 18.3125 54.390625 
Q 18.3125 48.734375 21.84375 45.5625 
Q 25.390625 42.390625 31.78125 42.390625 
Q 38.140625 42.390625 41.71875 45.5625 
Q 45.3125 48.734375 45.3125 54.390625 
Q 45.3125 60.0625 41.71875 63.234375 
Q 38.140625 66.40625 31.78125 66.40625 
Q 25.390625 66.40625 21.84375 63.234375 
Q 18.3125 60.0625 18.3125 54.390625 
z
" id="DejaVuSans-56"/>
       </defs>
       <use xlink:href="#DejaVuSans-48"/>
       <use x="63.623047" xlink:href="#DejaVuSans-46"/>
       <use x="95.410156" xlink:href="#DejaVuSans-56"/>
      </g>
     </g>
    </g>
    <g id="ytick_6">
     <g id="line2d_15">
      <g>
       <use style="stroke:#000000;stroke-width:0.8;" x="54" xlink:href="#m72368a6ea7" y="35.22804"/>
      </g>
     </g>
     <g id="text_17">
      <!-- 1.0 -->
      <g transform="translate(31.096875 39.027259)scale(0.1 -0.1)">
       <use xlink:href="#DejaVuSans-49"/>
       <use x="63.623047" xlink:href="#DejaVuSans-46"/>
       <use x="95.410156" xlink:href="#DejaVuSans-48"/>
      </g>
     </g>
    </g>
    <g id="text_18">
     <!-- concentration (molecules/cm^3) -->
     <g transform="translate(25.017187 225.458125)rotate(-90)scale(0.1 -0.1)">
      <defs>
       <path d="M 48.78125 52.59375 
L 48.78125 44.1875 
Q 44.96875 46.296875 41.140625 47.34375 
Q 37.3125 48.390625 33.40625 48.390625 
Q 24.65625 48.390625 19.8125 42.84375 
Q 14.984375 37.3125 14.984375 27.296875 
Q 14.984375 17.28125 19.8125 11.734375 
Q 24.65625 6.203125 33.40625 6.203125 
Q 37.3125 6.203125 41.140625 7.25 
Q 44.96875 8.296875 48.78125 10.40625 
L 48.78125 2.09375 
Q 45.015625 0.34375 40.984375 -0.53125 
Q 36.96875 -1.421875 32.421875 -1.421875 
Q 20.0625 -1.421875 12.78125 6.34375 
Q 5.515625 14.109375 5.515625 27.296875 
Q 5.515625 40.671875 12.859375 48.328125 
Q 20.21875 56 33.015625 56 
Q 37.15625 56 41.109375 55.140625 
Q 45.0625 54.296875 48.78125 52.59375 
z
" id="DejaVuSans-99"/>
       <path d="M 30.609375 48.390625 
Q 23.390625 48.390625 19.1875 42.75 
Q 14.984375 37.109375 14.984375 27.296875 
Q 14.984375 17.484375 19.15625 11.84375 
Q 23.34375 6.203125 30.609375 6.203125 
Q 37.796875 6.203125 41.984375 11.859375 
Q 46.1875 17.53125 46.1875 27.296875 
Q 46.1875 37.015625 41.984375 42.703125 
Q 37.796875 48.390625 30.609375 48.390625 
z
M 30.609375 56 
Q 42.328125 56 49.015625 48.375 
Q 55.71875 40.765625 55.71875 27.296875 
Q 55.71875 13.875 49.015625 6.21875 
Q 42.328125 -1.421875 30.609375 -1.421875 
Q 18.84375 -1.421875 12.171875 6.21875 
Q 5.515625 13.875 5.515625 27.296875 
Q 5.515625 40.765625 12.171875 48.375 
Q 18.84375 56 30.609375 56 
z
" id="DejaVuSans-111"/>
       <path d="M 54.890625 33.015625 
L 54.890625 0 
L 45.90625 0 
L 45.90625 32.71875 
Q 45.90625 40.484375 42.875 44.328125 
Q 39.84375 48.1875 33.796875 48.1875 
Q 26.515625 48.1875 22.3125 43.546875 
Q 18.109375 38.921875 18.109375 30.90625 
L 18.109375 0 
L 9.078125 0 
L 9.078125 54.6875 
L 18.109375 54.6875 
L 18.109375 46.1875 
Q 21.34375 51.125 25.703125 53.5625 
Q 30.078125 56 35.796875 56 
Q 45.21875 56 50.046875 50.171875 
Q 54.890625 44.34375 54.890625 33.015625 
z
" id="DejaVuSans-110"/>
       <path d="M 41.109375 46.296875 
Q 39.59375 47.171875 37.8125 47.578125 
Q 36.03125 48 33.890625 48 
Q 26.265625 48 22.1875 43.046875 
Q 18.109375 38.09375 18.109375 28.8125 
L 18.109375 0 
L 9.078125 0 
L 9.078125 54.6875 
L 18.109375 54.6875 
L 18.109375 46.1875 
Q 20.953125 51.171875 25.484375 53.578125 
Q 30.03125 56 36.53125 56 
Q 37.453125 56 38.578125 55.875 
Q 39.703125 55.765625 41.0625 55.515625 
z
" id="DejaVuSans-114"/>
       <path d="M 34.28125 27.484375 
Q 23.390625 27.484375 19.1875 25 
Q 14.984375 22.515625 14.984375 16.5 
Q 14.984375 11.71875 18.140625 8.90625 
Q 21.296875 6.109375 26.703125 6.109375 
Q 34.1875 6.109375 38.703125 11.40625 
Q 43.21875 16.703125 43.21875 25.484375 
L 43.21875 27.484375 
z
M 52.203125 31.203125 
L 52.203125 0 
L 43.21875 0 
L 43.21875 8.296875 
Q 40.140625 3.328125 35.546875 0.953125 
Q 30.953125 -1.421875 24.3125 -1.421875 
Q 15.921875 -1.421875 10.953125 3.296875 
Q 6 8.015625 6 15.921875 
Q 6 25.140625 12.171875 29.828125 
Q 18.359375 34.515625 30.609375 34.515625 
L 43.21875 34.515625 
L 43.21875 35.40625 
Q 43.21875 41.609375 39.140625 45 
Q 35.0625 48.390625 27.6875 48.390625 
Q 23 48.390625 18.546875 47.265625 
Q 14.109375 46.140625 10.015625 43.890625 
L 10.015625 52.203125 
Q 14.9375 54.109375 19.578125 55.046875 
Q 24.21875 56 28.609375 56 
Q 40.484375 56 46.34375 49.84375 
Q 52.203125 43.703125 52.203125 31.203125 
z
" id="DejaVuSans-97"/>
       <path d="M 9.421875 75.984375 
L 18.40625 75.984375 
L 18.40625 0 
L 9.421875 0 
z
" id="DejaVuSans-108"/>
       <path d="M 8.5 21.578125 
L 8.5 54.6875 
L 17.484375 54.6875 
L 17.484375 21.921875 
Q 17.484375 14.15625 20.5 10.265625 
Q 23.53125 6.390625 29.59375 6.390625 
Q 36.859375 6.390625 41.078125 11.03125 
Q 45.3125 15.671875 45.3125 23.6875 
L 45.3125 54.6875 
L 54.296875 54.6875 
L 54.296875 0 
L 45.3125 0 
L 45.3125 8.40625 
Q 42.046875 3.421875 37.71875 1 
Q 33.40625 -1.421875 27.6875 -1.421875 
Q 18.265625 -1.421875 13.375 4.4375 
Q 8.5 10.296875 8.5 21.578125 
z
M 31.109375 56 
z
" id="DejaVuSans-117"/>
       <path d="M 25.390625 72.90625 
L 33.6875 72.90625 
L 8.296875 -9.28125 
L 0 -9.28125 
z
" id="DejaVuSans-47"/>
       <path d="M 46.6875 72.90625 
L 73.1875 45.703125 
L 63.375 45.703125 
L 41.890625 64.984375 
L 20.40625 45.703125 
L 10.59375 45.703125 
L 37.109375 72.90625 
z
" id="DejaVuSans-94"/>
       <path d="M 40.578125 39.3125 
Q 47.65625 37.796875 51.625 33 
Q 55.609375 28.21875 55.609375 21.1875 
Q 55.609375 10.40625 48.1875 4.484375 
Q 40.765625 -1.421875 27.09375 -1.421875 
Q 22.515625 -1.421875 17.65625 -0.515625 
Q 12.796875 0.390625 7.625 2.203125 
L 7.625 11.71875 
Q 11.71875 9.328125 16.59375 8.109375 
Q 21.484375 6.890625 26.8125 6.890625 
Q 36.078125 6.890625 40.9375 10.546875 
Q 45.796875 14.203125 45.796875 21.1875 
Q 45.796875 27.640625 41.28125 31.265625 
Q 36.765625 34.90625 28.71875 34.90625 
L 20.21875 34.90625 
L 20.21875 43.015625 
L 29.109375 43.015625 
Q 36.375 43.015625 40.234375 45.921875 
Q 44.09375 48.828125 44.09375 54.296875 
Q 44.09375 59.90625 40.109375 62.90625 
Q 36.140625 65.921875 28.71875 65.921875 
Q 24.65625 65.921875 20.015625 65.03125 
Q 15.375 64.15625 9.8125 62.3125 
L 9.8125 71.09375 
Q 15.4375 72.65625 20.34375 73.4375 
Q 25.25 74.21875 29.59375 74.21875 
Q 40.828125 74.21875 47.359375 69.109375 
Q 53.90625 64.015625 53.90625 55.328125 
Q 53.90625 49.265625 50.4375 45.09375 
Q 46.96875 40.921875 40.578125 39.3125 
z
" id="DejaVuSans-51"/>
      </defs>
      <use xlink:href="#DejaVuSans-99"/>
      <use x="54.980469" xlink:href="#DejaVuSans-111"/>
      <use x="116.162109" xlink:href="#DejaVuSans-110"/>
      <use x="179.541016" xlink:href="#DejaVuSans-99"/>
      <use x="234.521484" xlink:href="#DejaVuSans-101"/>
      <use x="296.044922" xlink:href="#DejaVuSans-110"/>
      <use x="359.423828" xlink:href="#DejaVuSans-116"/>
      <use x="398.632812" xlink:href="#DejaVuSans-114"/>
      <use x="439.746094" xlink:href="#DejaVuSans-97"/>
      <use x="501.025391" xlink:href="#DejaVuSans-116"/>
      <use x="540.234375" xlink:href="#DejaVuSans-105"/>
      <use x="568.017578" xlink:href="#DejaVuSans-111"/>
      <use x="629.199219" xlink:href="#DejaVuSans-110"/>
      <use x="692.578125" xlink:href="#DejaVuSans-32"/>
      <use x="724.365234" xlink:href="#DejaVuSans-40"/>
      <use x="763.378906" xlink:href="#DejaVuSans-109"/>
      <use x="860.791016" xlink:href="#DejaVuSans-111"/>
      <use x="921.972656" xlink:href="#DejaVuSans-108"/>
      <use x="949.755859" xlink:href="#DejaVuSans-101"/>
      <use x="1011.279297" xlink:href="#DejaVuSans-99"/>
      <use x="1066.259766" xlink:href="#DejaVuSans-117"/>
      <use x="1129.638672" xlink:href="#DejaVuSans-108"/>
      <use x="1157.421875" xlink:href="#DejaVuSans-101"/>
      <use x="1218.945312" xlink:href="#DejaVuSans-115"/>
      <use x="1271.044922" xlink:href="#DejaVuSans-47"/>
      <use x="1304.736328" xlink:href="#DejaVuSans-99"/>
      <use x="1359.716797" xlink:href="#DejaVuSans-109"/>
      <use x="1457.128906" xlink:href="#DejaVuSans-94"/>
      <use x="1540.917969" xlink:href="#DejaVuSans-51"/>
      <use x="1604.541016" xlink:href="#DejaVuSans-41"/>
     </g>
    </g>
    <g id="text_19">
     <!-- 1e12 -->
     <g transform="translate(54 31.56)scale(0.1 -0.1)">
      <use xlink:href="#DejaVuSans-49"/>
      <use x="63.623047" xlink:href="#DejaVuSans-101"/>
      <use x="125.146484" xlink:href="#DejaVuSans-49"/>
      <use x="188.769531" xlink:href="#DejaVuSans-50"/>
     </g>
    </g>
   </g>
   <g id="line2d_16">
    <path clip-path="url(#pc38935d826)" d="M 69.218182 44.443636 
L 72.292562 59.81075 
L 75.366942 73.983178 
L 78.441322 87.053802 
L 81.515702 99.108282 
L 84.590083 110.225618 
L 87.664463 120.478669 
L 90.738843 129.934629 
L 93.813223 138.655468 
L 96.887603 146.698337 
L 99.961983 154.115945 
L 103.036364 160.956901 
L 106.110744 167.266038 
L 109.185124 173.0847 
L 112.259504 178.451018 
L 115.333884 183.40016 
L 118.408264 187.964558 
L 121.482645 192.174122 
L 124.557025 196.056439 
L 127.631405 199.636949 
L 130.705785 202.939116 
L 133.780165 205.984577 
L 136.854545 208.793291 
L 139.928926 211.383661 
L 143.003306 213.772662 
L 146.077686 215.975948 
L 149.152066 218.007957 
L 152.226446 219.882005 
L 155.300826 221.610371 
L 158.375207 223.20438 
L 161.449587 224.674477 
L 164.523967 226.030294 
L 167.598347 227.280717 
L 170.672727 228.433937 
L 173.747107 229.497512 
L 176.821488 230.47841 
L 179.895868 231.383058 
L 182.970248 232.217384 
L 186.044628 232.986854 
L 189.119008 233.696511 
L 192.193388 234.351002 
L 195.267769 234.954618 
L 198.342149 235.511313 
L 201.416529 236.024734 
L 204.490909 236.498245 
L 207.565289 236.934949 
L 210.639669 237.337707 
L 213.71405 237.709157 
L 216.78843 238.051733 
L 219.86281 238.36768 
L 222.93719 238.659068 
L 226.01157 238.927805 
L 229.08595 239.175653 
L 232.160331 239.404236 
L 235.234711 239.61505 
L 238.309091 239.809478 
L 241.383471 239.988792 
L 244.457851 240.154168 
L 247.532231 240.30669 
L 250.606612 240.447356 
L 253.680992 240.577087 
L 256.755372 240.696735 
L 259.829752 240.807082 
L 262.904132 240.908852 
L 265.978512 241.002712 
L 269.052893 241.089275 
L 272.127273 241.16911 
L 275.201653 241.24274 
L 278.276033 241.310646 
L 281.350413 241.373274 
L 284.424793 241.431034 
L 287.499174 241.484304 
L 290.573554 241.533433 
L 293.647934 241.578744 
L 296.722314 241.620533 
L 299.796694 241.659073 
L 302.871074 241.694618 
L 305.945455 241.7274 
L 309.019835 241.757634 
L 312.094215 241.785517 
L 315.168595 241.811234 
L 318.242975 241.834951 
L 321.317355 241.856825 
L 324.391736 241.876999 
L 327.466116 241.895604 
L 330.540496 241.912764 
L 333.614876 241.928589 
L 336.689256 241.943185 
L 339.763636 241.956646 
L 342.838017 241.96906 
L 345.912397 241.98051 
L 348.986777 241.99107 
L 352.061157 242.000808 
L 355.135537 242.00979 
L 358.209917 242.018074 
L 361.284298 242.025714 
L 364.358678 242.03276 
L 367.433058 242.039258 
L 370.507438 242.045251 
L 373.581818 242.050779 
" style="fill:none;stroke:#1f77b4;stroke-linecap:square;stroke-width:1.5;"/>
   </g>
   <g id="line2d_17">
    <path clip-path="url(#pc38935d826)" d="M 69.218182 242.116364 
L 72.292562 227.362681 
L 75.366942 214.902941 
L 78.441322 204.469635 
L 81.515702 195.822983 
L 84.590083 188.748238 
L 87.664463 183.05325 
L 90.738843 178.566242 
L 93.813223 175.133809 
L 96.887603 172.619098 
L 99.961983 170.900161 
L 103.036364 169.868465 
L 106.110744 169.427544 
L 109.185124 169.491777 
L 112.259504 169.985286 
L 115.333884 170.840938 
L 118.408264 171.999443 
L 121.482645 173.408543 
L 124.557025 175.022273 
L 127.631405 176.800303 
L 130.705785 178.707333 
L 133.780165 180.712563 
L 136.854545 182.789201 
L 139.928926 184.914024 
L 143.003306 187.066995 
L 146.077686 189.230895 
L 149.152066 191.391016 
L 152.226446 193.534866 
L 155.300826 195.651922 
L 158.375207 197.733396 
L 161.449587 199.772027 
L 164.523967 201.761897 
L 167.598347 203.698269 
L 170.672727 205.577435 
L 173.747107 207.39659 
L 176.821488 209.153707 
L 179.895868 210.847439 
L 182.970248 212.477023 
L 186.044628 214.042199 
L 189.119008 215.543132 
L 192.193388 216.980353 
L 195.267769 218.354698 
L 198.342149 219.667257 
L 201.416529 220.919332 
L 204.490909 222.112396 
L 207.565289 223.248057 
L 210.639669 224.328031 
L 213.71405 225.354112 
L 216.78843 226.328155 
L 219.86281 227.252049 
L 222.93719 228.127707 
L 226.01157 228.957044 
L 229.08595 229.74197 
L 232.160331 230.484379 
L 235.234711 231.186137 
L 238.309091 231.849079 
L 241.383471 232.475 
L 244.457851 233.065649 
L 247.532231 233.622728 
L 250.606612 234.147887 
L 253.680992 234.642722 
L 256.755372 235.108775 
L 259.829752 235.54753 
L 262.904132 235.960415 
L 265.978512 236.348802 
L 269.052893 236.714004 
L 272.127273 237.057278 
L 275.201653 237.379827 
L 278.276033 237.6828 
L 281.350413 237.96729 
L 284.424793 238.23434 
L 287.499174 238.484943 
L 290.573554 238.720042 
L 293.647934 238.940533 
L 296.722314 239.147267 
L 299.796694 239.34105 
L 302.871074 239.522646 
L 305.945455 239.69278 
L 309.019835 239.852136 
L 312.094215 240.001361 
L 315.168595 240.141068 
L 318.242975 240.271835 
L 321.317355 240.394208 
L 324.391736 240.5087 
L 327.466116 240.615799 
L 330.540496 240.715962 
L 333.614876 240.809619 
L 336.689256 240.897178 
L 339.763636 240.97902 
L 342.838017 241.055505 
L 345.912397 241.126972 
L 348.986777 241.193738 
L 352.061157 241.256102 
L 355.135537 241.314345 
L 358.209917 241.368732 
L 361.284298 241.419509 
L 364.358678 241.466909 
L 367.433058 241.511151 
L 370.507438 241.552439 
L 373.581818 241.590966 
" style="fill:none;stroke:#ff7f0e;stroke-linecap:square;stroke-width:1.5;"/>
   </g>
   <g id="line2d_18">
    <path clip-path="url(#pc38935d826)" d="M 69.218182 242.116364 
L 72.292562 241.519368 
L 75.366942 239.914032 
L 78.441322 237.546351 
L 81.515702 234.623505 
L 84.590083 231.318937 
L 87.664463 227.776807 
L 90.738843 224.115953 
L 93.813223 220.433355 
L 96.887603 216.807188 
L 99.961983 213.299509 
L 103.036364 209.95861 
L 106.110744 206.821071 
L 109.185124 203.913569 
L 112.259504 201.254438 
L 115.333884 198.855042 
L 118.408264 196.720955 
L 121.482645 194.852993 
L 124.557025 193.248097 
L 127.631405 191.9001 
L 130.705785 190.800383 
L 133.780165 189.93843 
L 136.854545 189.302313 
L 139.928926 188.87909 
L 143.003306 188.655149 
L 146.077686 188.616488 
L 149.152066 188.748962 
L 152.226446 189.038472 
L 155.300826 189.471118 
L 158.375207 190.033335 
L 161.449587 190.71199 
L 164.523967 191.494461 
L 167.598347 192.368695 
L 170.672727 193.323249 
L 173.747107 194.347318 
L 176.821488 195.43075 
L 179.895868 196.564052 
L 182.970248 197.738387 
L 186.044628 198.945567 
L 189.119008 200.178039 
L 192.193388 201.428861 
L 195.267769 202.691686 
L 198.342149 203.960738 
L 201.416529 205.230779 
L 204.490909 206.497089 
L 207.565289 207.755435 
L 210.639669 209.002041 
L 213.71405 210.233562 
L 216.78843 211.447056 
L 219.86281 212.639952 
L 222.93719 213.81003 
L 226.01157 214.955391 
L 229.08595 216.07443 
L 232.160331 217.165816 
L 235.234711 218.228469 
L 238.309091 219.261535 
L 241.383471 220.264366 
L 244.457851 221.236507 
L 247.532231 222.177667 
L 250.606612 223.087711 
L 253.680992 223.96664 
L 256.755372 224.814577 
L 259.829752 225.631752 
L 262.904132 226.418492 
L 265.978512 227.175205 
L 269.052893 227.902373 
L 272.127273 228.600541 
L 275.201653 229.270306 
L 278.276033 229.912311 
L 281.350413 230.527234 
L 284.424793 231.115786 
L 287.499174 231.6787 
L 290.573554 232.216727 
L 293.647934 232.730634 
L 296.722314 233.221192 
L 299.796694 233.68918 
L 302.871074 234.135374 
L 305.945455 234.560552 
L 309.019835 234.965481 
L 312.094215 235.350925 
L 315.168595 235.717633 
L 318.242975 236.066347 
L 321.317355 236.39779 
L 324.391736 236.712674 
L 327.466116 237.011691 
L 330.540496 237.295519 
L 333.614876 237.564817 
L 336.689256 237.820223 
L 339.763636 238.062359 
L 342.838017 238.291826 
L 345.912397 238.509206 
L 348.986777 238.715061 
L 352.061157 238.909932 
L 355.135537 239.094343 
L 358.209917 239.268797 
L 361.284298 239.433778 
L 364.358678 239.58975 
L 367.433058 239.737159 
L 370.507438 239.876434 
L 373.581818 240.007986 
" style="fill:none;stroke:#2ca02c;stroke-linecap:square;stroke-width:1.5;"/>
   </g>
   <g id="line2d_19">
    <path clip-path="url(#pc38935d826)" d="M 69.218182 242.116364 
L 72.292562 242.10026 
L 75.366942 241.997527 
L 78.441322 241.746408 
L 81.515702 241.307417 
L 84.590083 240.658761 
L 87.664463 239.792524 
L 90.738843 238.711448 
L 93.813223 237.426293 
L 96.887603 235.95364 
L 99.961983 234.314096 
L 103.036364 232.530835 
L 106.110744 230.628427 
L 109.185124 228.631911 
L 112.259504 226.566061 
L 115.333884 224.454836 
L 118.408264 222.320961 
L 121.482645 220.18563 
L 124.557025 218.068301 
L 127.631405 215.986579 
L 130.705785 213.956151 
L 133.780165 211.990778 
L 136.854545 210.102325 
L 139.928926 208.300821 
L 143.003306 206.594547 
L 146.077686 204.990128 
L 149.152066 203.492653 
L 152.226446 202.105789 
L 155.300826 200.831904 
L 158.375207 199.672191 
L 161.449587 198.626789 
L 164.523967 197.694901 
L 167.598347 196.874906 
L 170.672727 196.164473 
L 173.747107 195.560655 
L 176.821488 195.059991 
L 179.895868 194.658592 
L 182.970248 194.352222 
L 186.044628 194.136371 
L 189.119008 194.00633 
L 192.193388 193.957241 
L 195.267769 193.98416 
L 198.342149 194.082104 
L 201.416529 194.246091 
L 204.490909 194.471179 
L 207.565289 194.752499 
L 210.639669 195.085282 
L 213.71405 195.464883 
L 216.78843 195.886801 
L 219.86281 196.346691 
L 222.93719 196.840384 
L 226.01157 197.363891 
L 229.08595 197.913412 
L 232.160331 198.485343 
L 235.234711 199.076273 
L 238.309091 199.682992 
L 241.383471 200.302485 
L 244.457851 200.931932 
L 247.532231 201.568708 
L 250.606612 202.210374 
L 253.680992 202.854674 
L 256.755372 203.499531 
L 259.829752 204.143038 
L 262.904132 204.783454 
L 265.978512 205.419194 
L 269.052893 206.048826 
L 272.127273 206.67106 
L 275.201653 207.284741 
L 278.276033 207.888846 
L 281.350413 208.482469 
L 284.424793 209.064821 
L 287.499174 209.635218 
L 290.573554 210.193076 
L 293.647934 210.737903 
L 296.722314 211.269297 
L 299.796694 211.786931 
L 302.871074 212.290554 
L 305.945455 212.779983 
L 309.019835 213.255098 
L 312.094215 213.715834 
L 315.168595 214.162178 
L 318.242975 214.594166 
L 321.317355 215.011875 
L 324.391736 215.41542 
L 327.466116 215.80495 
L 330.540496 216.180646 
L 333.614876 216.542713 
L 336.689256 216.891383 
L 339.763636 217.226905 
L 342.838017 217.549548 
L 345.912397 217.859595 
L 348.986777 218.157343 
L 352.061157 218.443097 
L 355.135537 218.717172 
L 358.209917 218.979888 
L 361.284298 219.23157 
L 364.358678 219.472547 
L 367.433058 219.703148 
L 370.507438 219.923704 
L 373.581818 220.134545 
" style="fill:none;stroke:#d62728;stroke-linecap:square;stroke-width:1.5;"/>
   </g>
   <g id="line2d_20">
    <path clip-path="url(#pc38935d826)" d="M 69.218182 242.116364 
L 72.292562 242.116032 
L 75.366942 242.111412 
L 78.441322 242.092894 
L 81.515702 242.046904 
L 84.590083 241.957537 
L 87.664463 241.807841 
L 90.738843 241.580819 
L 93.813223 241.260167 
L 96.887603 240.830829 
L 99.961983 240.279382 
L 103.036364 239.594282 
L 106.110744 238.766012 
L 109.185124 237.787136 
L 112.259504 236.652289 
L 115.333884 235.358116 
L 118.408264 233.903175 
L 121.482645 232.287805 
L 124.557025 230.513983 
L 127.631405 228.585162 
L 130.705785 226.50611 
L 133.780165 224.282744 
L 136.854545 221.921964 
L 139.928926 219.431496 
L 143.003306 216.819742 
L 146.077686 214.095634 
L 149.152066 211.268505 
L 152.226446 208.347962 
L 155.300826 205.343778 
L 158.375207 202.265791 
L 161.449587 199.123811 
L 164.523967 195.92754 
L 167.598347 192.686506 
L 170.672727 189.409998 
L 173.747107 186.107018 
L 176.821488 182.786235 
L 179.895868 179.455952 
L 182.970248 176.124077 
L 186.044628 172.798101 
L 189.119008 169.485082 
L 192.193388 166.191637 
L 195.267769 162.923931 
L 198.342149 159.687681 
L 201.416529 156.488157 
L 204.490909 153.330184 
L 207.565289 150.218154 
L 210.639669 147.156033 
L 213.71405 144.147379 
L 216.78843 141.195349 
L 219.86281 138.30272 
L 222.93719 135.471904 
L 226.01157 132.704962 
L 229.08595 130.003628 
L 232.160331 127.36932 
L 235.234711 124.803164 
L 238.309091 122.30601 
L 241.383471 119.87845 
L 244.457851 117.520837 
L 247.532231 115.233301 
L 250.606612 113.015766 
L 253.680992 110.86797 
L 256.755372 108.789475 
L 259.829752 106.779691 
L 262.904132 104.83788 
L 265.978512 102.963181 
L 269.052893 101.154615 
L 272.127273 99.411104 
L 275.201653 97.731479 
L 278.276033 96.114491 
L 281.350413 94.558827 
L 284.424793 93.063113 
L 287.499174 91.625929 
L 290.573554 90.245815 
L 293.647934 88.921279 
L 296.722314 87.650805 
L 299.796694 86.43286 
L 302.871074 85.2659 
L 305.945455 84.148378 
L 309.019835 83.078744 
L 312.094215 82.055456 
L 315.168595 81.07698 
L 318.242975 80.141794 
L 321.317355 79.248395 
L 324.391736 78.395301 
L 327.466116 77.581049 
L 330.540496 76.804203 
L 333.614876 76.063355 
L 336.689256 75.357125 
L 339.763636 74.684164 
L 342.838017 74.043154 
L 345.912397 73.43281 
L 348.986777 72.851882 
L 352.061157 72.299154 
L 355.135537 71.773443 
L 358.209917 71.273603 
L 361.284298 70.798523 
L 364.358678 70.347128 
L 367.433058 69.918377 
L 370.507438 69.511264 
L 373.581818 69.124818 
" style="fill:none;stroke:#9467bd;stroke-linecap:square;stroke-width:1.5;"/>
   </g>
   <g id="patch_3">
    <path d="M 54 252 
L 54 34.56 
" style="fill:none;stroke:#000000;stroke-linecap:square;stroke-linejoin:miter;stroke-width:0.8;"/>
   </g>
   <g id="patch_4">
    <path d="M 388.8 252 
L 388.8 34.56 
" style="fill:none;stroke:#000000;stroke-linecap:square;stroke-linejoin:miter;stroke-width:0.8;"/>
   </g>
   <g id="patch_5">
    <path d="M 54 252 
L 388.8 252 
" style="fill:none;stroke:#000000;stroke-linecap:square;stroke-linejoin:miter;stroke-width:0.8;"/>
   </g>
   <g id="patch_6">
    <path d="M 54 34.56 
L 388.8 34.56 
" style="fill:none;stroke:#000000;stroke-linecap:square;stroke-linejoin:miter;stroke-width:0.8;"/>
   </g>
   <g id="legend_1">
    <g id="patch_7">
     <path d="M 283.745313 181.475313 
L 381.8 181.475313 
Q 383.8 181.475313 383.8 179.475313 
L 383.8 107.084688 
Q 383.8 105.084688 381.8 105.084688 
L 283.745313 105.084688 
Q 281.745313 105.084688 281.745313 107.084688 
L 281.745313 179.475313 
Q 281.745313 181.475313 283.745313 181.475313 
z
" style="fill:#ffffff;opacity:0.8;stroke:#cccccc;stroke-linejoin:miter;"/>
    </g>
    <g id="line2d_21">
     <path d="M 285.745313 113.183125 
L 305.745313 113.183125 
" style="fill:none;stroke:#1f77b4;stroke-linecap:square;stroke-width:1.5;"/>
    </g>
    <g id="line2d_22"/>
    <g id="text_20">
     <!-- H3O+ -->
     <g transform="translate(313.745313 116.683125)scale(0.1 -0.1)">
      <defs>
       <path d="M 9.8125 72.90625 
L 19.671875 72.90625 
L 19.671875 43.015625 
L 55.515625 43.015625 
L 55.515625 72.90625 
L 65.375 72.90625 
L 65.375 0 
L 55.515625 0 
L 55.515625 34.71875 
L 19.671875 34.71875 
L 19.671875 0 
L 9.8125 0 
z
" id="DejaVuSans-72"/>
       <path d="M 39.40625 66.21875 
Q 28.65625 66.21875 22.328125 58.203125 
Q 16.015625 50.203125 16.015625 36.375 
Q 16.015625 22.609375 22.328125 14.59375 
Q 28.65625 6.59375 39.40625 6.59375 
Q 50.140625 6.59375 56.421875 14.59375 
Q 62.703125 22.609375 62.703125 36.375 
Q 62.703125 50.203125 56.421875 58.203125 
Q 50.140625 66.21875 39.40625 66.21875 
z
M 39.40625 74.21875 
Q 54.734375 74.21875 63.90625 63.9375 
Q 73.09375 53.65625 73.09375 36.375 
Q 73.09375 19.140625 63.90625 8.859375 
Q 54.734375 -1.421875 39.40625 -1.421875 
Q 24.03125 -1.421875 14.8125 8.828125 
Q 5.609375 19.09375 5.609375 36.375 
Q 5.609375 53.65625 14.8125 63.9375 
Q 24.03125 74.21875 39.40625 74.21875 
z
" id="DejaVuSans-79"/>
       <path d="M 46 62.703125 
L 46 35.5 
L 73.1875 35.5 
L 73.1875 27.203125 
L 46 27.203125 
L 46 0 
L 37.796875 0 
L 37.796875 27.203125 
L 10.59375 27.203125 
L 10.59375 35.5 
L 37.796875 35.5 
L 37.796875 62.703125 
z
" id="DejaVuSans-43"/>
      </defs>
      <use xlink:href="#DejaVuSans-72"/>
      <use x="75.195312" xlink:href="#DejaVuSans-51"/>
      <use x="138.818359" xlink:href="#DejaVuSans-79"/>
      <use x="217.529297" xlink:href="#DejaVuSans-43"/>
     </g>
    </g>
    <g id="line2d_23">
     <path d="M 285.745313 127.86125 
L 305.745313 127.86125 
" style="fill:none;stroke:#ff7f0e;stroke-linecap:square;stroke-width:1.5;"/>
    </g>
    <g id="line2d_24"/>
    <g id="text_21">
     <!-- H3O+(H2O) -->
     <g transform="translate(313.745313 131.36125)scale(0.1 -0.1)">
      <use xlink:href="#DejaVuSans-72"/>
      <use x="75.195312" xlink:href="#DejaVuSans-51"/>
      <use x="138.818359" xlink:href="#DejaVuSans-79"/>
      <use x="217.529297" xlink:href="#DejaVuSans-43"/>
      <use x="301.318359" xlink:href="#DejaVuSans-40"/>
      <use x="340.332031" xlink:href="#DejaVuSans-72"/>
      <use x="415.527344" xlink:href="#DejaVuSans-50"/>
      <use x="479.150391" xlink:href="#DejaVuSans-79"/>
      <use x="557.861328" xlink:href="#DejaVuSans-41"/>
     </g>
    </g>
    <g id="line2d_25">
     <path d="M 285.745313 142.539375 
L 305.745313 142.539375 
" style="fill:none;stroke:#2ca02c;stroke-linecap:square;stroke-width:1.5;"/>
    </g>
    <g id="line2d_26"/>
    <g id="text_22">
     <!-- H3O+(H2O)2 -->
     <g transform="translate(313.745313 146.039375)scale(0.1 -0.1)">
      <use xlink:href="#DejaVuSans-72"/>
      <use x="75.195312" xlink:href="#DejaVuSans-51"/>
      <use x="138.818359" xlink:href="#DejaVuSans-79"/>
      <use x="217.529297" xlink:href="#DejaVuSans-43"/>
      <use x="301.318359" xlink:href="#DejaVuSans-40"/>
      <use x="340.332031" xlink:href="#DejaVuSans-72"/>
      <use x="415.527344" xlink:href="#DejaVuSans-50"/>
      <use x="479.150391" xlink:href="#DejaVuSans-79"/>
      <use x="557.861328" xlink:href="#DejaVuSans-41"/>
      <use x="596.875" xlink:href="#DejaVuSans-50"/>
     </g>
    </g>
    <g id="line2d_27">
     <path d="M 285.745313 157.2175 
L 305.745313 157.2175 
" style="fill:none;stroke:#d62728;stroke-linecap:square;stroke-width:1.5;"/>
    </g>
    <g id="line2d_28"/>
    <g id="text_23">
     <!-- H3O+(H2O)3 -->
     <g transform="translate(313.745313 160.7175)scale(0.1 -0.1)">
      <use xlink:href="#DejaVuSans-72"/>
      <use x="75.195312" xlink:href="#DejaVuSans-51"/>
      <use x="138.818359" xlink:href="#DejaVuSans-79"/>
      <use x="217.529297" xlink:href="#DejaVuSans-43"/>
      <use x="301.318359" xlink:href="#DejaVuSans-40"/>
      <use x="340.332031" xlink:href="#DejaVuSans-72"/>
      <use x="415.527344" xlink:href="#DejaVuSans-50"/>
      <use x="479.150391" xlink:href="#DejaVuSans-79"/>
      <use x="557.861328" xlink:href="#DejaVuSans-41"/>
      <use x="596.875" xlink:href="#DejaVuSans-51"/>
     </g>
    </g>
    <g id="line2d_29">
     <path d="M 285.745313 171.895625 
L 305.745313 171.895625 
" style="fill:none;stroke:#9467bd;stroke-linecap:square;stroke-width:1.5;"/>
    </g>
    <g id="line2d_30"/>
    <g id="text_24">
     <!-- H3O+(H2O)4 -->
     <g transform="translate(313.745313 175.395625)scale(0.1 -0.1)">
      <use xlink:href="#DejaVuSans-72"/>
      <use x="75.195312" xlink:href="#DejaVuSans-51"/>
      <use x="138.818359" xlink:href="#DejaVuSans-79"/>
      <use x="217.529297" xlink:href="#DejaVuSans-43"/>
      <use x="301.318359" xlink:href="#DejaVuSans-40"/>
      <use x="340.332031" xlink:href="#DejaVuSans-72"/>
      <use x="415.527344" xlink:href="#DejaVuSans-50"/>
      <use x="479.150391" xlink:href="#DejaVuSans-79"/>
      <use x="557.861328" xlink:href="#DejaVuSans-41"/>
      <use x="596.875" xlink:href="#DejaVuSans-52"/>
     </g>
    </g>
   </g>
  </g>
 </g>
 <defs>
  <clipPath id="pc38935d826">
   <rect height="217.44" width="334.8" x="54" y="34.56"/>
  </clipPath>
 </defs>
</svg>
