<?xml version="1.0" encoding="utf-8" standalone="no"?>
<!DOCTYPE svg PUBLIC "-//W3C//DTD SVG 1.1//EN"
  "http://www.w3.org/Graphics/SVG/1.1/DTD/svg11.dtd">
<!-- Created with matplotlib (https://matplotlib.org/) -->
<svg height="288pt" version="1.1" viewBox="0 0 720 288" width="720pt" xmlns="http://www.w3.org/2000/svg" xmlns:xlink="http://www.w3.org/1999/xlink">
 <metadata>
  <rdf:RDF xmlns:cc="http://creativecommons.org/ns#" xmlns:dc="http://purl.org/dc/elements/1.1/" xmlns:rdf="http://www.w3.org/1999/02/22-rdf-syntax-ns#">
   <cc:Work>
    <dc:type rdf:resource="http://purl.org/dc/dcmitype/StillImage"/>
    <dc:date>2021-02-25T00:32:39.484974</dc:date>
    <dc:format>image/svg+xml</dc:format>
    <dc:creator>
     <cc:Agent>
      <dc:title>Matplotlib v3.3.2, https://matplotlib.org/</dc:title>
     </cc:Agent>
    </dc:creator>
   </cc:Work>
  </rdf:RDF>
 </metadata>
 <defs>
  <style type="text/css">*{stroke-linecap:butt;stroke-linejoin:round;}</style>
 </defs>
 <g id="figure_1">
  <g id="patch_1">
   <path d="M 0 288 
L 720 288 
L 720 0 
L 0 0 
z
" style="fill:#ffffff;"/>
  </g>
  <g id="axes_1">
   <g id="patch_2">
    <path d="M 90 252 
L 648 252 
L 648 34.56 
L 90 34.56 
z
" style="fill:#e5e5e5;"/>
   </g>
   <g id="matplotlib.axis_1">
    <g id="xtick_1">
     <g id="line2d_1">
      <path clip-path="url(#p906a00d465)" d="M 115.363636 252 
L 115.363636 34.56 
" style="fill:none;stroke:#ffffff;stroke-linecap:square;stroke-width:0.8;"/>
     </g>
     <g id="line2d_2">
      <defs>
       <path d="M 0 0 
L 0 3.5 
" id="m9f4aa400e0" style="stroke:#555555;stroke-width:0.8;"/>
      </defs>
      <g>
       <use style="fill:#555555;stroke:#555555;stroke-width:0.8;" x="115.363636" xlink:href="#m9f4aa400e0" y="252"/>
      </g>
     </g>
     <g id="text_1">
      <!-- 0.00 -->
      <g style="fill:#555555;" transform="translate(104.230824 266.598437)scale(0.1 -0.1)">
       <defs>
        <path d="M 31.78125 66.40625 
Q 24.171875 66.40625 20.328125 58.90625 
Q 16.5 51.421875 16.5 36.375 
Q 16.5 21.390625 20.328125 13.890625 
Q 24.171875 6.390625 31.78125 6.390625 
Q 39.453125 6.390625 43.28125 13.890625 
Q 47.125 21.390625 47.125 36.375 
Q 47.125 51.421875 43.28125 58.90625 
Q 39.453125 66.40625 31.78125 66.40625 
z
M 31.78125 74.21875 
Q 44.046875 74.21875 50.515625 64.515625 
Q 56.984375 54.828125 56.984375 36.375 
Q 56.984375 17.96875 50.515625 8.265625 
Q 44.046875 -1.421875 31.78125 -1.421875 
Q 19.53125 -1.421875 13.0625 8.265625 
Q 6.59375 17.96875 6.59375 36.375 
Q 6.59375 54.828125 13.0625 64.515625 
Q 19.53125 74.21875 31.78125 74.21875 
z
" id="DejaVuSans-48"/>
        <path d="M 10.6875 12.40625 
L 21 12.40625 
L 21 0 
L 10.6875 0 
z
" id="DejaVuSans-46"/>
       </defs>
       <use xlink:href="#DejaVuSans-48"/>
       <use x="63.623047" xlink:href="#DejaVuSans-46"/>
       <use x="95.410156" xlink:href="#DejaVuSans-48"/>
       <use x="159.033203" xlink:href="#DejaVuSans-48"/>
      </g>
     </g>
    </g>
    <g id="xtick_2">
     <g id="line2d_3">
      <path clip-path="url(#p906a00d465)" d="M 179.413223 252 
L 179.413223 34.56 
" style="fill:none;stroke:#ffffff;stroke-linecap:square;stroke-width:0.8;"/>
     </g>
     <g id="line2d_4">
      <g>
       <use style="fill:#555555;stroke:#555555;stroke-width:0.8;" x="179.413223" xlink:href="#m9f4aa400e0" y="252"/>
      </g>
     </g>
     <g id="text_2">
      <!-- 0.25 -->
      <g style="fill:#555555;" transform="translate(168.280411 266.598437)scale(0.1 -0.1)">
       <defs>
        <path d="M 19.1875 8.296875 
L 53.609375 8.296875 
L 53.609375 0 
L 7.328125 0 
L 7.328125 8.296875 
Q 12.9375 14.109375 22.625 23.890625 
Q 32.328125 33.6875 34.8125 36.53125 
Q 39.546875 41.84375 41.421875 45.53125 
Q 43.3125 49.21875 43.3125 52.78125 
Q 43.3125 58.59375 39.234375 62.25 
Q 35.15625 65.921875 28.609375 65.921875 
Q 23.96875 65.921875 18.8125 64.3125 
Q 13.671875 62.703125 7.8125 59.421875 
L 7.8125 69.390625 
Q 13.765625 71.78125 18.9375 73 
Q 24.125 74.21875 28.421875 74.21875 
Q 39.75 74.21875 46.484375 68.546875 
Q 53.21875 62.890625 53.21875 53.421875 
Q 53.21875 48.921875 51.53125 44.890625 
Q 49.859375 40.875 45.40625 35.40625 
Q 44.1875 33.984375 37.640625 27.21875 
Q 31.109375 20.453125 19.1875 8.296875 
z
" id="DejaVuSans-50"/>
        <path d="M 10.796875 72.90625 
L 49.515625 72.90625 
L 49.515625 64.59375 
L 19.828125 64.59375 
L 19.828125 46.734375 
Q 21.96875 47.46875 24.109375 47.828125 
Q 26.265625 48.1875 28.421875 48.1875 
Q 40.625 48.1875 47.75 41.5 
Q 54.890625 34.8125 54.890625 23.390625 
Q 54.890625 11.625 47.5625 5.09375 
Q 40.234375 -1.421875 26.90625 -1.421875 
Q 22.3125 -1.421875 17.546875 -0.640625 
Q 12.796875 0.140625 7.71875 1.703125 
L 7.71875 11.625 
Q 12.109375 9.234375 16.796875 8.0625 
Q 21.484375 6.890625 26.703125 6.890625 
Q 35.15625 6.890625 40.078125 11.328125 
Q 45.015625 15.765625 45.015625 23.390625 
Q 45.015625 31 40.078125 35.4375 
Q 35.15625 39.890625 26.703125 39.890625 
Q 22.75 39.890625 18.8125 39.015625 
Q 14.890625 38.140625 10.796875 36.28125 
z
" id="DejaVuSans-53"/>
       </defs>
       <use xlink:href="#DejaVuSans-48"/>
       <use x="63.623047" xlink:href="#DejaVuSans-46"/>
       <use x="95.410156" xlink:href="#DejaVuSans-50"/>
       <use x="159.033203" xlink:href="#DejaVuSans-53"/>
      </g>
     </g>
    </g>
    <g id="xtick_3">
     <g id="line2d_5">
      <path clip-path="url(#p906a00d465)" d="M 243.46281 252 
L 243.46281 34.56 
" style="fill:none;stroke:#ffffff;stroke-linecap:square;stroke-width:0.8;"/>
     </g>
     <g id="line2d_6">
      <g>
       <use style="fill:#555555;stroke:#555555;stroke-width:0.8;" x="243.46281" xlink:href="#m9f4aa400e0" y="252"/>
      </g>
     </g>
     <g id="text_3">
      <!-- 0.50 -->
      <g style="fill:#555555;" transform="translate(232.329997 266.598437)scale(0.1 -0.1)">
       <use xlink:href="#DejaVuSans-48"/>
       <use x="63.623047" xlink:href="#DejaVuSans-46"/>
       <use x="95.410156" xlink:href="#DejaVuSans-53"/>
       <use x="159.033203" xlink:href="#DejaVuSans-48"/>
      </g>
     </g>
    </g>
    <g id="xtick_4">
     <g id="line2d_7">
      <path clip-path="url(#p906a00d465)" d="M 307.512397 252 
L 307.512397 34.56 
" style="fill:none;stroke:#ffffff;stroke-linecap:square;stroke-width:0.8;"/>
     </g>
     <g id="line2d_8">
      <g>
       <use style="fill:#555555;stroke:#555555;stroke-width:0.8;" x="307.512397" xlink:href="#m9f4aa400e0" y="252"/>
      </g>
     </g>
     <g id="text_4">
      <!-- 0.75 -->
      <g style="fill:#555555;" transform="translate(296.379584 266.598437)scale(0.1 -0.1)">
       <defs>
        <path d="M 8.203125 72.90625 
L 55.078125 72.90625 
L 55.078125 68.703125 
L 28.609375 0 
L 18.3125 0 
L 43.21875 64.59375 
L 8.203125 64.59375 
z
" id="DejaVuSans-55"/>
       </defs>
       <use xlink:href="#DejaVuSans-48"/>
       <use x="63.623047" xlink:href="#DejaVuSans-46"/>
       <use x="95.410156" xlink:href="#DejaVuSans-55"/>
       <use x="159.033203" xlink:href="#DejaVuSans-53"/>
      </g>
     </g>
    </g>
    <g id="xtick_5">
     <g id="line2d_9">
      <path clip-path="url(#p906a00d465)" d="M 371.561983 252 
L 371.561983 34.56 
" style="fill:none;stroke:#ffffff;stroke-linecap:square;stroke-width:0.8;"/>
     </g>
     <g id="line2d_10">
      <g>
       <use style="fill:#555555;stroke:#555555;stroke-width:0.8;" x="371.561983" xlink:href="#m9f4aa400e0" y="252"/>
      </g>
     </g>
     <g id="text_5">
      <!-- 1.00 -->
      <g style="fill:#555555;" transform="translate(360.429171 266.598437)scale(0.1 -0.1)">
       <defs>
        <path d="M 12.40625 8.296875 
L 28.515625 8.296875 
L 28.515625 63.921875 
L 10.984375 60.40625 
L 10.984375 69.390625 
L 28.421875 72.90625 
L 38.28125 72.90625 
L 38.28125 8.296875 
L 54.390625 8.296875 
L 54.390625 0 
L 12.40625 0 
z
" id="DejaVuSans-49"/>
       </defs>
       <use xlink:href="#DejaVuSans-49"/>
       <use x="63.623047" xlink:href="#DejaVuSans-46"/>
       <use x="95.410156" xlink:href="#DejaVuSans-48"/>
       <use x="159.033203" xlink:href="#DejaVuSans-48"/>
      </g>
     </g>
    </g>
    <g id="xtick_6">
     <g id="line2d_11">
      <path clip-path="url(#p906a00d465)" d="M 435.61157 252 
L 435.61157 34.56 
" style="fill:none;stroke:#ffffff;stroke-linecap:square;stroke-width:0.8;"/>
     </g>
     <g id="line2d_12">
      <g>
       <use style="fill:#555555;stroke:#555555;stroke-width:0.8;" x="435.61157" xlink:href="#m9f4aa400e0" y="252"/>
      </g>
     </g>
     <g id="text_6">
      <!-- 1.25 -->
      <g style="fill:#555555;" transform="translate(424.478758 266.598437)scale(0.1 -0.1)">
       <use xlink:href="#DejaVuSans-49"/>
       <use x="63.623047" xlink:href="#DejaVuSans-46"/>
       <use x="95.410156" xlink:href="#DejaVuSans-50"/>
       <use x="159.033203" xlink:href="#DejaVuSans-53"/>
      </g>
     </g>
    </g>
    <g id="xtick_7">
     <g id="line2d_13">
      <path clip-path="url(#p906a00d465)" d="M 499.661157 252 
L 499.661157 34.56 
" style="fill:none;stroke:#ffffff;stroke-linecap:square;stroke-width:0.8;"/>
     </g>
     <g id="line2d_14">
      <g>
       <use style="fill:#555555;stroke:#555555;stroke-width:0.8;" x="499.661157" xlink:href="#m9f4aa400e0" y="252"/>
      </g>
     </g>
     <g id="text_7">
      <!-- 1.50 -->
      <g style="fill:#555555;" transform="translate(488.528345 266.598437)scale(0.1 -0.1)">
       <use xlink:href="#DejaVuSans-49"/>
       <use x="63.623047" xlink:href="#DejaVuSans-46"/>
       <use x="95.410156" xlink:href="#DejaVuSans-53"/>
       <use x="159.033203" xlink:href="#DejaVuSans-48"/>
      </g>
     </g>
    </g>
    <g id="xtick_8">
     <g id="line2d_15">
      <path clip-path="url(#p906a00d465)" d="M 563.710744 252 
L 563.710744 34.56 
" style="fill:none;stroke:#ffffff;stroke-linecap:square;stroke-width:0.8;"/>
     </g>
     <g id="line2d_16">
      <g>
       <use style="fill:#555555;stroke:#555555;stroke-width:0.8;" x="563.710744" xlink:href="#m9f4aa400e0" y="252"/>
      </g>
     </g>
     <g id="text_8">
      <!-- 1.75 -->
      <g style="fill:#555555;" transform="translate(552.577931 266.598437)scale(0.1 -0.1)">
       <use xlink:href="#DejaVuSans-49"/>
       <use x="63.623047" xlink:href="#DejaVuSans-46"/>
       <use x="95.410156" xlink:href="#DejaVuSans-55"/>
       <use x="159.033203" xlink:href="#DejaVuSans-53"/>
      </g>
     </g>
    </g>
    <g id="xtick_9">
     <g id="line2d_17">
      <path clip-path="url(#p906a00d465)" d="M 627.760331 252 
L 627.760331 34.56 
" style="fill:none;stroke:#ffffff;stroke-linecap:square;stroke-width:0.8;"/>
     </g>
     <g id="line2d_18">
      <g>
       <use style="fill:#555555;stroke:#555555;stroke-width:0.8;" x="627.760331" xlink:href="#m9f4aa400e0" y="252"/>
      </g>
     </g>
     <g id="text_9">
      <!-- 2.00 -->
      <g style="fill:#555555;" transform="translate(616.627518 266.598437)scale(0.1 -0.1)">
       <use xlink:href="#DejaVuSans-50"/>
       <use x="63.623047" xlink:href="#DejaVuSans-46"/>
       <use x="95.410156" xlink:href="#DejaVuSans-48"/>
       <use x="159.033203" xlink:href="#DejaVuSans-48"/>
      </g>
     </g>
    </g>
    <g id="text_10">
     <!-- time (s) -->
     <g style="fill:#555555;" transform="translate(345.730313 281.79625)scale(0.12 -0.12)">
      <defs>
       <path d="M 18.3125 70.21875 
L 18.3125 54.6875 
L 36.8125 54.6875 
L 36.8125 47.703125 
L 18.3125 47.703125 
L 18.3125 18.015625 
Q 18.3125 11.328125 20.140625 9.421875 
Q 21.96875 7.515625 27.59375 7.515625 
L 36.8125 7.515625 
L 36.8125 0 
L 27.59375 0 
Q 17.1875 0 13.234375 3.875 
Q 9.28125 7.765625 9.28125 18.015625 
L 9.28125 47.703125 
L 2.6875 47.703125 
L 2.6875 54.6875 
L 9.28125 54.6875 
L 9.28125 70.21875 
z
" id="DejaVuSans-116"/>
       <path d="M 9.421875 54.6875 
L 18.40625 54.6875 
L 18.40625 0 
L 9.421875 0 
z
M 9.421875 75.984375 
L 18.40625 75.984375 
L 18.40625 64.59375 
L 9.421875 64.59375 
z
" id="DejaVuSans-105"/>
       <path d="M 52 44.1875 
Q 55.375 50.25 60.0625 53.125 
Q 64.75 56 71.09375 56 
Q 79.640625 56 84.28125 50.015625 
Q 88.921875 44.046875 88.921875 33.015625 
L 88.921875 0 
L 79.890625 0 
L 79.890625 32.71875 
Q 79.890625 40.578125 77.09375 44.375 
Q 74.3125 48.1875 68.609375 48.1875 
Q 61.625 48.1875 57.5625 43.546875 
Q 53.515625 38.921875 53.515625 30.90625 
L 53.515625 0 
L 44.484375 0 
L 44.484375 32.71875 
Q 44.484375 40.625 41.703125 44.40625 
Q 38.921875 48.1875 33.109375 48.1875 
Q 26.21875 48.1875 22.15625 43.53125 
Q 18.109375 38.875 18.109375 30.90625 
L 18.109375 0 
L 9.078125 0 
L 9.078125 54.6875 
L 18.109375 54.6875 
L 18.109375 46.1875 
Q 21.1875 51.21875 25.484375 53.609375 
Q 29.78125 56 35.6875 56 
Q 41.65625 56 45.828125 52.96875 
Q 50 49.953125 52 44.1875 
z
" id="DejaVuSans-109"/>
       <path d="M 56.203125 29.59375 
L 56.203125 25.203125 
L 14.890625 25.203125 
Q 15.484375 15.921875 20.484375 11.0625 
Q 25.484375 6.203125 34.421875 6.203125 
Q 39.59375 6.203125 44.453125 7.46875 
Q 49.3125 8.734375 54.109375 11.28125 
L 54.109375 2.78125 
Q 49.265625 0.734375 44.1875 -0.34375 
Q 39.109375 -1.421875 33.890625 -1.421875 
Q 20.796875 -1.421875 13.15625 6.1875 
Q 5.515625 13.8125 5.515625 26.8125 
Q 5.515625 40.234375 12.765625 48.109375 
Q 20.015625 56 32.328125 56 
Q 43.359375 56 49.78125 48.890625 
Q 56.203125 41.796875 56.203125 29.59375 
z
M 47.21875 32.234375 
Q 47.125 39.59375 43.09375 43.984375 
Q 39.0625 48.390625 32.421875 48.390625 
Q 24.90625 48.390625 20.390625 44.140625 
Q 15.875 39.890625 15.1875 32.171875 
z
" id="DejaVuSans-101"/>
       <path id="DejaVuSans-32"/>
       <path d="M 31 75.875 
Q 24.46875 64.65625 21.28125 53.65625 
Q 18.109375 42.671875 18.109375 31.390625 
Q 18.109375 20.125 21.3125 9.0625 
Q 24.515625 -2 31 -13.1875 
L 23.1875 -13.1875 
Q 15.875 -1.703125 12.234375 9.375 
Q 8.59375 20.453125 8.59375 31.390625 
Q 8.59375 42.28125 12.203125 53.3125 
Q 15.828125 64.359375 23.1875 75.875 
z
" id="DejaVuSans-40"/>
       <path d="M 44.28125 53.078125 
L 44.28125 44.578125 
Q 40.484375 46.53125 36.375 47.5 
Q 32.28125 48.484375 27.875 48.484375 
Q 21.1875 48.484375 17.84375 46.4375 
Q 14.5 44.390625 14.5 40.28125 
Q 14.5 37.15625 16.890625 35.375 
Q 19.28125 33.59375 26.515625 31.984375 
L 29.59375 31.296875 
Q 39.15625 29.25 43.1875 25.515625 
Q 47.21875 21.78125 47.21875 15.09375 
Q 47.21875 7.46875 41.1875 3.015625 
Q 35.15625 -1.421875 24.609375 -1.421875 
Q 20.21875 -1.421875 15.453125 -0.5625 
Q 10.6875 0.296875 5.421875 2 
L 5.421875 11.28125 
Q 10.40625 8.6875 15.234375 7.390625 
Q 20.0625 6.109375 24.8125 6.109375 
Q 31.15625 6.109375 34.5625 8.28125 
Q 37.984375 10.453125 37.984375 14.40625 
Q 37.984375 18.0625 35.515625 20.015625 
Q 33.0625 21.96875 24.703125 23.78125 
L 21.578125 24.515625 
Q 13.234375 26.265625 9.515625 29.90625 
Q 5.8125 33.546875 5.8125 39.890625 
Q 5.8125 47.609375 11.28125 51.796875 
Q 16.75 56 26.8125 56 
Q 31.78125 56 36.171875 55.265625 
Q 40.578125 54.546875 44.28125 53.078125 
z
" id="DejaVuSans-115"/>
       <path d="M 8.015625 75.875 
L 15.828125 75.875 
Q 23.140625 64.359375 26.78125 53.3125 
Q 30.421875 42.28125 30.421875 31.390625 
Q 30.421875 20.453125 26.78125 9.375 
Q 23.140625 -1.703125 15.828125 -13.1875 
L 8.015625 -13.1875 
Q 14.5 -2 17.703125 9.0625 
Q 20.90625 20.125 20.90625 31.390625 
Q 20.90625 42.671875 17.703125 53.65625 
Q 14.5 64.65625 8.015625 75.875 
z
" id="DejaVuSans-41"/>
      </defs>
      <use xlink:href="#DejaVuSans-116"/>
      <use x="39.208984" xlink:href="#DejaVuSans-105"/>
      <use x="66.992188" xlink:href="#DejaVuSans-109"/>
      <use x="164.404297" xlink:href="#DejaVuSans-101"/>
      <use x="225.927734" xlink:href="#DejaVuSans-32"/>
      <use x="257.714844" xlink:href="#DejaVuSans-40"/>
      <use x="296.728516" xlink:href="#DejaVuSans-115"/>
      <use x="348.828125" xlink:href="#DejaVuSans-41"/>
     </g>
    </g>
    <g id="text_11">
     <!-- 1e−7 -->
     <g style="fill:#555555;" transform="translate(620.742188 279.276563)scale(0.1 -0.1)">
      <defs>
       <path d="M 10.59375 35.5 
L 73.1875 35.5 
L 73.1875 27.203125 
L 10.59375 27.203125 
z
" id="DejaVuSans-8722"/>
      </defs>
      <use xlink:href="#DejaVuSans-49"/>
      <use x="63.623047" xlink:href="#DejaVuSans-101"/>
      <use x="125.146484" xlink:href="#DejaVuSans-8722"/>
      <use x="208.935547" xlink:href="#DejaVuSans-55"/>
     </g>
    </g>
   </g>
   <g id="matplotlib.axis_2">
    <g id="ytick_1">
     <g id="line2d_19">
      <path clip-path="url(#p906a00d465)" d="M 90 242.116364 
L 648 242.116364 
" style="fill:none;stroke:#ffffff;stroke-linecap:square;stroke-width:0.8;"/>
     </g>
     <g id="line2d_20">
      <defs>
       <path d="M 0 0 
L -3.5 0 
" id="m49082277c3" style="stroke:#555555;stroke-width:0.8;"/>
      </defs>
      <g>
       <use style="fill:#555555;stroke:#555555;stroke-width:0.8;" x="90" xlink:href="#m49082277c3" y="242.116364"/>
      </g>
     </g>
     <g id="text_12">
      <!-- 0.0 -->
      <g style="fill:#555555;" transform="translate(67.096875 245.915582)scale(0.1 -0.1)">
       <use xlink:href="#DejaVuSans-48"/>
       <use x="63.623047" xlink:href="#DejaVuSans-46"/>
       <use x="95.410156" xlink:href="#DejaVuSans-48"/>
      </g>
     </g>
    </g>
    <g id="ytick_2">
     <g id="line2d_21">
      <path clip-path="url(#p906a00d465)" d="M 90 200.738702 
L 648 200.738702 
" style="fill:none;stroke:#ffffff;stroke-linecap:square;stroke-width:0.8;"/>
     </g>
     <g id="line2d_22">
      <g>
       <use style="fill:#555555;stroke:#555555;stroke-width:0.8;" x="90" xlink:href="#m49082277c3" y="200.738702"/>
      </g>
     </g>
     <g id="text_13">
      <!-- 0.2 -->
      <g style="fill:#555555;" transform="translate(67.096875 204.53792)scale(0.1 -0.1)">
       <use xlink:href="#DejaVuSans-48"/>
       <use x="63.623047" xlink:href="#DejaVuSans-46"/>
       <use x="95.410156" xlink:href="#DejaVuSans-50"/>
      </g>
     </g>
    </g>
    <g id="ytick_3">
     <g id="line2d_23">
      <path clip-path="url(#p906a00d465)" d="M 90 159.361039 
L 648 159.361039 
" style="fill:none;stroke:#ffffff;stroke-linecap:square;stroke-width:0.8;"/>
     </g>
     <g id="line2d_24">
      <g>
       <use style="fill:#555555;stroke:#555555;stroke-width:0.8;" x="90" xlink:href="#m49082277c3" y="159.361039"/>
      </g>
     </g>
     <g id="text_14">
      <!-- 0.4 -->
      <g style="fill:#555555;" transform="translate(67.096875 163.160258)scale(0.1 -0.1)">
       <defs>
        <path d="M 37.796875 64.3125 
L 12.890625 25.390625 
L 37.796875 25.390625 
z
M 35.203125 72.90625 
L 47.609375 72.90625 
L 47.609375 25.390625 
L 58.015625 25.390625 
L 58.015625 17.1875 
L 47.609375 17.1875 
L 47.609375 0 
L 37.796875 0 
L 37.796875 17.1875 
L 4.890625 17.1875 
L 4.890625 26.703125 
z
" id="DejaVuSans-52"/>
       </defs>
       <use xlink:href="#DejaVuSans-48"/>
       <use x="63.623047" xlink:href="#DejaVuSans-46"/>
       <use x="95.410156" xlink:href="#DejaVuSans-52"/>
      </g>
     </g>
    </g>
    <g id="ytick_4">
     <g id="line2d_25">
      <path clip-path="url(#p906a00d465)" d="M 90 117.983377 
L 648 117.983377 
" style="fill:none;stroke:#ffffff;stroke-linecap:square;stroke-width:0.8;"/>
     </g>
     <g id="line2d_26">
      <g>
       <use style="fill:#555555;stroke:#555555;stroke-width:0.8;" x="90" xlink:href="#m49082277c3" y="117.983377"/>
      </g>
     </g>
     <g id="text_15">
      <!-- 0.6 -->
      <g style="fill:#555555;" transform="translate(67.096875 121.782596)scale(0.1 -0.1)">
       <defs>
        <path d="M 33.015625 40.375 
Q 26.375 40.375 22.484375 35.828125 
Q 18.609375 31.296875 18.609375 23.390625 
Q 18.609375 15.53125 22.484375 10.953125 
Q 26.375 6.390625 33.015625 6.390625 
Q 39.65625 6.390625 43.53125 10.953125 
Q 47.40625 15.53125 47.40625 23.390625 
Q 47.40625 31.296875 43.53125 35.828125 
Q 39.65625 40.375 33.015625 40.375 
z
M 52.59375 71.296875 
L 52.59375 62.3125 
Q 48.875 64.0625 45.09375 64.984375 
Q 41.3125 65.921875 37.59375 65.921875 
Q 27.828125 65.921875 22.671875 59.328125 
Q 17.53125 52.734375 16.796875 39.40625 
Q 19.671875 43.65625 24.015625 45.921875 
Q 28.375 48.1875 33.59375 48.1875 
Q 44.578125 48.1875 50.953125 41.515625 
Q 57.328125 34.859375 57.328125 23.390625 
Q 57.328125 12.15625 50.6875 5.359375 
Q 44.046875 -1.421875 33.015625 -1.421875 
Q 20.359375 -1.421875 13.671875 8.265625 
Q 6.984375 17.96875 6.984375 36.375 
Q 6.984375 53.65625 15.1875 63.9375 
Q 23.390625 74.21875 37.203125 74.21875 
Q 40.921875 74.21875 44.703125 73.484375 
Q 48.484375 72.75 52.59375 71.296875 
z
" id="DejaVuSans-54"/>
       </defs>
       <use xlink:href="#DejaVuSans-48"/>
       <use x="63.623047" xlink:href="#DejaVuSans-46"/>
       <use x="95.410156" xlink:href="#DejaVuSans-54"/>
      </g>
     </g>
    </g>
    <g id="ytick_5">
     <g id="line2d_27">
      <path clip-path="url(#p906a00d465)" d="M 90 76.605715 
L 648 76.605715 
" style="fill:none;stroke:#ffffff;stroke-linecap:square;stroke-width:0.8;"/>
     </g>
     <g id="line2d_28">
      <g>
       <use style="fill:#555555;stroke:#555555;stroke-width:0.8;" x="90" xlink:href="#m49082277c3" y="76.605715"/>
      </g>
     </g>
     <g id="text_16">
      <!-- 0.8 -->
      <g style="fill:#555555;" transform="translate(67.096875 80.404934)scale(0.1 -0.1)">
       <defs>
        <path d="M 31.78125 34.625 
Q 24.75 34.625 20.71875 30.859375 
Q 16.703125 27.09375 16.703125 20.515625 
Q 16.703125 13.921875 20.71875 10.15625 
Q 24.75 6.390625 31.78125 6.390625 
Q 38.8125 6.390625 42.859375 10.171875 
Q 46.921875 13.96875 46.921875 20.515625 
Q 46.921875 27.09375 42.890625 30.859375 
Q 38.875 34.625 31.78125 34.625 
z
M 21.921875 38.8125 
Q 15.578125 40.375 12.03125 44.71875 
Q 8.5 49.078125 8.5 55.328125 
Q 8.5 64.0625 14.71875 69.140625 
Q 20.953125 74.21875 31.78125 74.21875 
Q 42.671875 74.21875 48.875 69.140625 
Q 55.078125 64.0625 55.078125 55.328125 
Q 55.078125 49.078125 51.53125 44.71875 
Q 48 40.375 41.703125 38.8125 
Q 48.828125 37.15625 52.796875 32.3125 
Q 56.78125 27.484375 56.78125 20.515625 
Q 56.78125 9.90625 50.3125 4.234375 
Q 43.84375 -1.421875 31.78125 -1.421875 
Q 19.734375 -1.421875 13.25 4.234375 
Q 6.78125 9.90625 6.78125 20.515625 
Q 6.78125 27.484375 10.78125 32.3125 
Q 14.796875 37.15625 21.921875 38.8125 
z
M 18.3125 54.390625 
Q 18.3125 48.734375 21.84375 45.5625 
Q 25.390625 42.390625 31.78125 42.390625 
Q 38.140625 42.390625 41.71875 45.5625 
Q 45.3125 48.734375 45.3125 54.390625 
Q 45.3125 60.0625 41.71875 63.234375 
Q 38.140625 66.40625 31.78125 66.40625 
Q 25.390625 66.40625 21.84375 63.234375 
Q 18.3125 60.0625 18.3125 54.390625 
z
" id="DejaVuSans-56"/>
       </defs>
       <use xlink:href="#DejaVuSans-48"/>
       <use x="63.623047" xlink:href="#DejaVuSans-46"/>
       <use x="95.410156" xlink:href="#DejaVuSans-56"/>
      </g>
     </g>
    </g>
    <g id="ytick_6">
     <g id="line2d_29">
      <path clip-path="url(#p906a00d465)" d="M 90 35.228053 
L 648 35.228053 
" style="fill:none;stroke:#ffffff;stroke-linecap:square;stroke-width:0.8;"/>
     </g>
     <g id="line2d_30">
      <g>
       <use style="fill:#555555;stroke:#555555;stroke-width:0.8;" x="90" xlink:href="#m49082277c3" y="35.228053"/>
      </g>
     </g>
     <g id="text_17">
      <!-- 1.0 -->
      <g style="fill:#555555;" transform="translate(67.096875 39.027272)scale(0.1 -0.1)">
       <use xlink:href="#DejaVuSans-49"/>
       <use x="63.623047" xlink:href="#DejaVuSans-46"/>
       <use x="95.410156" xlink:href="#DejaVuSans-48"/>
      </g>
     </g>
    </g>
    <g id="text_18">
     <!-- concentration (molecules/cm^3) -->
     <g style="fill:#555555;" transform="translate(60.60125 241.89375)rotate(-90)scale(0.12 -0.12)">
      <defs>
       <path d="M 48.78125 52.59375 
L 48.78125 44.1875 
Q 44.96875 46.296875 41.140625 47.34375 
Q 37.3125 48.390625 33.40625 48.390625 
Q 24.65625 48.390625 19.8125 42.84375 
Q 14.984375 37.3125 14.984375 27.296875 
Q 14.984375 17.28125 19.8125 11.734375 
Q 24.65625 6.203125 33.40625 6.203125 
Q 37.3125 6.203125 41.140625 7.25 
Q 44.96875 8.296875 48.78125 10.40625 
L 48.78125 2.09375 
Q 45.015625 0.34375 40.984375 -0.53125 
Q 36.96875 -1.421875 32.421875 -1.421875 
Q 20.0625 -1.421875 12.78125 6.34375 
Q 5.515625 14.109375 5.515625 27.296875 
Q 5.515625 40.671875 12.859375 48.328125 
Q 20.21875 56 33.015625 56 
Q 37.15625 56 41.109375 55.140625 
Q 45.0625 54.296875 48.78125 52.59375 
z
" id="DejaVuSans-99"/>
       <path d="M 30.609375 48.390625 
Q 23.390625 48.390625 19.1875 42.75 
Q 14.984375 37.109375 14.984375 27.296875 
Q 14.984375 17.484375 19.15625 11.84375 
Q 23.34375 6.203125 30.609375 6.203125 
Q 37.796875 6.203125 41.984375 11.859375 
Q 46.1875 17.53125 46.1875 27.296875 
Q 46.1875 37.015625 41.984375 42.703125 
Q 37.796875 48.390625 30.609375 48.390625 
z
M 30.609375 56 
Q 42.328125 56 49.015625 48.375 
Q 55.71875 40.765625 55.71875 27.296875 
Q 55.71875 13.875 49.015625 6.21875 
Q 42.328125 -1.421875 30.609375 -1.421875 
Q 18.84375 -1.421875 12.171875 6.21875 
Q 5.515625 13.875 5.515625 27.296875 
Q 5.515625 40.765625 12.171875 48.375 
Q 18.84375 56 30.609375 56 
z
" id="DejaVuSans-111"/>
       <path d="M 54.890625 33.015625 
L 54.890625 0 
L 45.90625 0 
L 45.90625 32.71875 
Q 45.90625 40.484375 42.875 44.328125 
Q 39.84375 48.1875 33.796875 48.1875 
Q 26.515625 48.1875 22.3125 43.546875 
Q 18.109375 38.921875 18.109375 30.90625 
L 18.109375 0 
L 9.078125 0 
L 9.078125 54.6875 
L 18.109375 54.6875 
L 18.109375 46.1875 
Q 21.34375 51.125 25.703125 53.5625 
Q 30.078125 56 35.796875 56 
Q 45.21875 56 50.046875 50.171875 
Q 54.890625 44.34375 54.890625 33.015625 
z
" id="DejaVuSans-110"/>
       <path d="M 41.109375 46.296875 
Q 39.59375 47.171875 37.8125 47.578125 
Q 36.03125 48 33.890625 48 
Q 26.265625 48 22.1875 43.046875 
Q 18.109375 38.09375 18.109375 28.8125 
L 18.109375 0 
L 9.078125 0 
L 9.078125 54.6875 
L 18.109375 54.6875 
L 18.109375 46.1875 
Q 20.953125 51.171875 25.484375 53.578125 
Q 30.03125 56 36.53125 56 
Q 37.453125 56 38.578125 55.875 
Q 39.703125 55.765625 41.0625 55.515625 
z
" id="DejaVuSans-114"/>
       <path d="M 34.28125 27.484375 
Q 23.390625 27.484375 19.1875 25 
Q 14.984375 22.515625 14.984375 16.5 
Q 14.984375 11.71875 18.140625 8.90625 
Q 21.296875 6.109375 26.703125 6.109375 
Q 34.1875 6.109375 38.703125 11.40625 
Q 43.21875 16.703125 43.21875 25.484375 
L 43.21875 27.484375 
z
M 52.203125 31.203125 
L 52.203125 0 
L 43.21875 0 
L 43.21875 8.296875 
Q 40.140625 3.328125 35.546875 0.953125 
Q 30.953125 -1.421875 24.3125 -1.421875 
Q 15.921875 -1.421875 10.953125 3.296875 
Q 6 8.015625 6 15.921875 
Q 6 25.140625 12.171875 29.828125 
Q 18.359375 34.515625 30.609375 34.515625 
L 43.21875 34.515625 
L 43.21875 35.40625 
Q 43.21875 41.609375 39.140625 45 
Q 35.0625 48.390625 27.6875 48.390625 
Q 23 48.390625 18.546875 47.265625 
Q 14.109375 46.140625 10.015625 43.890625 
L 10.015625 52.203125 
Q 14.9375 54.109375 19.578125 55.046875 
Q 24.21875 56 28.609375 56 
Q 40.484375 56 46.34375 49.84375 
Q 52.203125 43.703125 52.203125 31.203125 
z
" id="DejaVuSans-97"/>
       <path d="M 9.421875 75.984375 
L 18.40625 75.984375 
L 18.40625 0 
L 9.421875 0 
z
" id="DejaVuSans-108"/>
       <path d="M 8.5 21.578125 
L 8.5 54.6875 
L 17.484375 54.6875 
L 17.484375 21.921875 
Q 17.484375 14.15625 20.5 10.265625 
Q 23.53125 6.390625 29.59375 6.390625 
Q 36.859375 6.390625 41.078125 11.03125 
Q 45.3125 15.671875 45.3125 23.6875 
L 45.3125 54.6875 
L 54.296875 54.6875 
L 54.296875 0 
L 45.3125 0 
L 45.3125 8.40625 
Q 42.046875 3.421875 37.71875 1 
Q 33.40625 -1.421875 27.6875 -1.421875 
Q 18.265625 -1.421875 13.375 4.4375 
Q 8.5 10.296875 8.5 21.578125 
z
M 31.109375 56 
z
" id="DejaVuSans-117"/>
       <path d="M 25.390625 72.90625 
L 33.6875 72.90625 
L 8.296875 -9.28125 
L 0 -9.28125 
z
" id="DejaVuSans-47"/>
       <path d="M 46.6875 72.90625 
L 73.1875 45.703125 
L 63.375 45.703125 
L 41.890625 64.984375 
L 20.40625 45.703125 
L 10.59375 45.703125 
L 37.109375 72.90625 
z
" id="DejaVuSans-94"/>
       <path d="M 40.578125 39.3125 
Q 47.65625 37.796875 51.625 33 
Q 55.609375 28.21875 55.609375 21.1875 
Q 55.609375 10.40625 48.1875 4.484375 
Q 40.765625 -1.421875 27.09375 -1.421875 
Q 22.515625 -1.421875 17.65625 -0.515625 
Q 12.796875 0.390625 7.625 2.203125 
L 7.625 11.71875 
Q 11.71875 9.328125 16.59375 8.109375 
Q 21.484375 6.890625 26.8125 6.890625 
Q 36.078125 6.890625 40.9375 10.546875 
Q 45.796875 14.203125 45.796875 21.1875 
Q 45.796875 27.640625 41.28125 31.265625 
Q 36.765625 34.90625 28.71875 34.90625 
L 20.21875 34.90625 
L 20.21875 43.015625 
L 29.109375 43.015625 
Q 36.375 43.015625 40.234375 45.921875 
Q 44.09375 48.828125 44.09375 54.296875 
Q 44.09375 59.90625 40.109375 62.90625 
Q 36.140625 65.921875 28.71875 65.921875 
Q 24.65625 65.921875 20.015625 65.03125 
Q 15.375 64.15625 9.8125 62.3125 
L 9.8125 71.09375 
Q 15.4375 72.65625 20.34375 73.4375 
Q 25.25 74.21875 29.59375 74.21875 
Q 40.828125 74.21875 47.359375 69.109375 
Q 53.90625 64.015625 53.90625 55.328125 
Q 53.90625 49.265625 50.4375 45.09375 
Q 46.96875 40.921875 40.578125 39.3125 
z
" id="DejaVuSans-51"/>
      </defs>
      <use xlink:href="#DejaVuSans-99"/>
      <use x="54.980469" xlink:href="#DejaVuSans-111"/>
      <use x="116.162109" xlink:href="#DejaVuSans-110"/>
      <use x="179.541016" xlink:href="#DejaVuSans-99"/>
      <use x="234.521484" xlink:href="#DejaVuSans-101"/>
      <use x="296.044922" xlink:href="#DejaVuSans-110"/>
      <use x="359.423828" xlink:href="#DejaVuSans-116"/>
      <use x="398.632812" xlink:href="#DejaVuSans-114"/>
      <use x="439.746094" xlink:href="#DejaVuSans-97"/>
      <use x="501.025391" xlink:href="#DejaVuSans-116"/>
      <use x="540.234375" xlink:href="#DejaVuSans-105"/>
      <use x="568.017578" xlink:href="#DejaVuSans-111"/>
      <use x="629.199219" xlink:href="#DejaVuSans-110"/>
      <use x="692.578125" xlink:href="#DejaVuSans-32"/>
      <use x="724.365234" xlink:href="#DejaVuSans-40"/>
      <use x="763.378906" xlink:href="#DejaVuSans-109"/>
      <use x="860.791016" xlink:href="#DejaVuSans-111"/>
      <use x="921.972656" xlink:href="#DejaVuSans-108"/>
      <use x="949.755859" xlink:href="#DejaVuSans-101"/>
      <use x="1011.279297" xlink:href="#DejaVuSans-99"/>
      <use x="1066.259766" xlink:href="#DejaVuSans-117"/>
      <use x="1129.638672" xlink:href="#DejaVuSans-108"/>
      <use x="1157.421875" xlink:href="#DejaVuSans-101"/>
      <use x="1218.945312" xlink:href="#DejaVuSans-115"/>
      <use x="1271.044922" xlink:href="#DejaVuSans-47"/>
      <use x="1304.736328" xlink:href="#DejaVuSans-99"/>
      <use x="1359.716797" xlink:href="#DejaVuSans-109"/>
      <use x="1457.128906" xlink:href="#DejaVuSans-94"/>
      <use x="1540.917969" xlink:href="#DejaVuSans-51"/>
      <use x="1604.541016" xlink:href="#DejaVuSans-41"/>
     </g>
    </g>
    <g id="text_19">
     <!-- 1e12 -->
     <g style="fill:#555555;" transform="translate(90 31.56)scale(0.1 -0.1)">
      <use xlink:href="#DejaVuSans-49"/>
      <use x="63.623047" xlink:href="#DejaVuSans-101"/>
      <use x="125.146484" xlink:href="#DejaVuSans-49"/>
      <use x="188.769531" xlink:href="#DejaVuSans-50"/>
     </g>
    </g>
   </g>
   <g id="line2d_31">
    <path clip-path="url(#p906a00d465)" d="M 115.363636 44.443636 
L 120.487603 59.810752 
L 125.61157 73.983182 
L 130.735537 87.053807 
L 135.859504 99.108287 
L 140.983471 110.225625 
L 146.107438 120.478677 
L 151.231405 129.934637 
L 156.355372 138.655477 
L 161.479339 146.698346 
L 166.603306 154.115954 
L 171.727273 160.95691 
L 176.85124 167.266047 
L 181.975207 173.084709 
L 187.099174 178.451027 
L 192.22314 183.400169 
L 197.347107 187.964567 
L 202.471074 192.174131 
L 207.595041 196.056448 
L 212.719008 199.636958 
L 217.842975 202.939124 
L 222.966942 205.984585 
L 228.090909 208.793298 
L 233.214876 211.383668 
L 238.338843 213.772669 
L 243.46281 215.975955 
L 248.586777 218.007964 
L 253.710744 219.882011 
L 258.834711 221.610376 
L 263.958678 223.204385 
L 269.082645 224.674482 
L 274.206612 226.030299 
L 279.330579 227.280722 
L 284.454545 228.433942 
L 289.578512 229.497517 
L 294.702479 230.478414 
L 299.826446 231.383062 
L 304.950413 232.217388 
L 310.07438 232.986858 
L 315.198347 233.696514 
L 320.322314 234.351006 
L 325.446281 234.954621 
L 330.570248 235.511316 
L 335.694215 236.024737 
L 340.818182 236.498248 
L 345.942149 236.934951 
L 351.066116 237.337709 
L 356.190083 237.709159 
L 361.31405 238.051735 
L 366.438017 238.367682 
L 371.561983 238.65907 
L 376.68595 238.927807 
L 381.809917 239.175655 
L 386.933884 239.404237 
L 392.057851 239.615051 
L 397.181818 239.809479 
L 402.305785 239.988793 
L 407.429752 240.15417 
L 412.553719 240.306691 
L 417.677686 240.447357 
L 422.801653 240.577088 
L 427.92562 240.696736 
L 433.049587 240.807083 
L 438.173554 240.908853 
L 443.297521 241.002712 
L 448.421488 241.089276 
L 453.545455 241.169111 
L 458.669421 241.24274 
L 463.793388 241.310646 
L 468.917355 241.373274 
L 474.041322 241.431034 
L 479.165289 241.484304 
L 484.289256 241.533434 
L 489.413223 241.578744 
L 494.53719 241.620533 
L 499.661157 241.659074 
L 504.785124 241.694618 
L 509.909091 241.7274 
L 515.033058 241.757634 
L 520.157025 241.785518 
L 525.280992 241.811234 
L 530.404959 241.834951 
L 535.528926 241.856825 
L 540.652893 241.876999 
L 545.77686 241.895604 
L 550.900826 241.912764 
L 556.024793 241.928589 
L 561.14876 241.943185 
L 566.272727 241.956646 
L 571.396694 241.96906 
L 576.520661 241.98051 
L 581.644628 241.99107 
L 586.768595 242.000809 
L 591.892562 242.00979 
L 597.016529 242.018074 
L 602.140496 242.025714 
L 607.264463 242.03276 
L 612.38843 242.039258 
L 617.512397 242.045251 
L 622.636364 242.050779 
" style="fill:none;stroke:#e24a33;stroke-linecap:square;stroke-width:1.5;"/>
   </g>
   <g id="line2d_32">
    <path clip-path="url(#p906a00d465)" d="M 115.363636 242.116364 
L 120.487603 227.362679 
L 125.61157 214.902938 
L 130.735537 204.469631 
L 135.859504 195.822979 
L 140.983471 188.748234 
L 146.107438 183.053246 
L 151.231405 178.566239 
L 156.355372 175.133806 
L 161.479339 172.619096 
L 166.603306 170.900159 
L 171.727273 169.868464 
L 176.85124 169.427544 
L 181.975207 169.491778 
L 187.099174 169.985287 
L 192.22314 170.84094 
L 197.347107 171.999446 
L 202.471074 173.408546 
L 207.595041 175.022277 
L 212.719008 176.800307 
L 217.842975 178.707338 
L 222.966942 180.712569 
L 228.090909 182.789206 
L 233.214876 184.914031 
L 238.338843 187.067001 
L 243.46281 189.230902 
L 248.586777 191.391023 
L 253.710744 193.534873 
L 258.834711 195.65193 
L 263.958678 197.733404 
L 269.082645 199.772035 
L 274.206612 201.761905 
L 279.330579 203.698276 
L 284.454545 205.577443 
L 289.578512 207.396597 
L 294.702479 209.153714 
L 299.826446 210.847446 
L 304.950413 212.477031 
L 310.07438 214.042206 
L 315.198347 215.543139 
L 320.322314 216.98036 
L 325.446281 218.354704 
L 330.570248 219.667264 
L 335.694215 220.919339 
L 340.818182 222.112403 
L 345.942149 223.248063 
L 351.066116 224.328037 
L 356.190083 225.354118 
L 361.31405 226.328161 
L 366.438017 227.252055 
L 371.561983 228.127712 
L 376.68595 228.957049 
L 381.809917 229.741975 
L 386.933884 230.484383 
L 392.057851 231.186142 
L 397.181818 231.849084 
L 402.305785 232.475004 
L 407.429752 233.065653 
L 412.553719 233.622732 
L 417.677686 234.14789 
L 422.801653 234.642726 
L 427.92562 235.108778 
L 433.049587 235.547533 
L 438.173554 235.960419 
L 443.297521 236.348805 
L 448.421488 236.714006 
L 453.545455 237.057281 
L 458.669421 237.37983 
L 463.793388 237.682802 
L 468.917355 237.967292 
L 474.041322 238.234342 
L 479.165289 238.484945 
L 484.289256 238.720044 
L 489.413223 238.940535 
L 494.53719 239.147269 
L 499.661157 239.341052 
L 504.785124 239.522648 
L 509.909091 239.692782 
L 515.033058 239.852137 
L 520.157025 240.001363 
L 525.280992 240.14107 
L 530.404959 240.271836 
L 535.528926 240.394209 
L 540.652893 240.508701 
L 545.77686 240.6158 
L 550.900826 240.715963 
L 556.024793 240.80962 
L 561.14876 240.897179 
L 566.272727 240.979021 
L 571.396694 241.055506 
L 576.520661 241.126973 
L 581.644628 241.193738 
L 586.768595 241.256103 
L 591.892562 241.314346 
L 597.016529 241.368732 
L 602.140496 241.419509 
L 607.264463 241.46691 
L 612.38843 241.511152 
L 617.512397 241.55244 
L 622.636364 241.590966 
" style="fill:none;stroke:#348abd;stroke-linecap:square;stroke-width:1.5;"/>
   </g>
   <g id="line2d_33">
    <path clip-path="url(#p906a00d465)" d="M 115.363636 242.116364 
L 120.487603 241.519368 
L 125.61157 239.914032 
L 130.735537 237.54635 
L 135.859504 234.623504 
L 140.983471 231.318935 
L 146.107438 227.776804 
L 151.231405 224.11595 
L 156.355372 220.433351 
L 161.479339 216.807184 
L 166.603306 213.299505 
L 171.727273 209.958605 
L 176.85124 206.821067 
L 181.975207 203.913565 
L 187.099174 201.254434 
L 192.22314 198.855038 
L 197.347107 196.720951 
L 202.471074 194.852989 
L 207.595041 193.248094 
L 212.719008 191.900098 
L 217.842975 190.80038 
L 222.966942 189.938428 
L 228.090909 189.302312 
L 233.214876 188.87909 
L 238.338843 188.655148 
L 243.46281 188.616488 
L 248.586777 188.748963 
L 253.710744 189.038473 
L 258.834711 189.47112 
L 263.958678 190.033337 
L 269.082645 190.711992 
L 274.206612 191.494464 
L 279.330579 192.368699 
L 284.454545 193.323253 
L 289.578512 194.347323 
L 294.702479 195.430755 
L 299.826446 196.564057 
L 304.950413 197.738392 
L 310.07438 198.945573 
L 315.198347 200.178045 
L 320.322314 201.428867 
L 325.446281 202.691693 
L 330.570248 203.960744 
L 335.694215 205.230785 
L 340.818182 206.497096 
L 345.942149 207.755442 
L 351.066116 209.002048 
L 356.190083 210.23357 
L 361.31405 211.447063 
L 366.438017 212.639959 
L 371.561983 213.810038 
L 376.68595 214.955398 
L 381.809917 216.074437 
L 386.933884 217.165824 
L 392.057851 218.228476 
L 397.181818 219.261541 
L 402.305785 220.264373 
L 407.429752 221.236513 
L 412.553719 222.177673 
L 417.677686 223.087718 
L 422.801653 223.966647 
L 427.92562 224.814584 
L 433.049587 225.631759 
L 438.173554 226.418498 
L 443.297521 227.175211 
L 448.421488 227.902379 
L 453.545455 228.600547 
L 458.669421 229.270312 
L 463.793388 229.912316 
L 468.917355 230.527239 
L 474.041322 231.115791 
L 479.165289 231.678705 
L 484.289256 232.216732 
L 489.413223 232.730639 
L 494.53719 233.221197 
L 499.661157 233.689184 
L 504.785124 234.135379 
L 509.909091 234.560556 
L 515.033058 234.965485 
L 520.157025 235.350928 
L 525.280992 235.717637 
L 530.404959 236.06635 
L 535.528926 236.397793 
L 540.652893 236.712677 
L 545.77686 237.011694 
L 550.900826 237.295522 
L 556.024793 237.564819 
L 561.14876 237.820226 
L 566.272727 238.062362 
L 571.396694 238.291829 
L 576.520661 238.509208 
L 581.644628 238.715063 
L 586.768595 238.909934 
L 591.892562 239.094346 
L 597.016529 239.268799 
L 602.140496 239.43378 
L 607.264463 239.589751 
L 612.38843 239.737161 
L 617.512397 239.876436 
L 622.636364 240.007987 
" style="fill:none;stroke:#988ed5;stroke-linecap:square;stroke-width:1.5;"/>
   </g>
   <g id="line2d_34">
    <path clip-path="url(#p906a00d465)" d="M 115.363636 242.116364 
L 120.487603 242.10026 
L 125.61157 241.997527 
L 130.735537 241.746408 
L 135.859504 241.307417 
L 140.983471 240.658761 
L 146.107438 239.792523 
L 151.231405 238.711447 
L 156.355372 237.426291 
L 161.479339 235.953638 
L 166.603306 234.314094 
L 171.727273 232.530832 
L 176.85124 230.628424 
L 181.975207 228.631908 
L 187.099174 226.566058 
L 192.22314 224.454833 
L 197.347107 222.320957 
L 202.471074 220.185625 
L 207.595041 218.068296 
L 212.719008 215.986574 
L 217.842975 213.956146 
L 222.966942 211.990773 
L 228.090909 210.10232 
L 233.214876 208.300816 
L 238.338843 206.594542 
L 243.46281 204.990123 
L 248.586777 203.492649 
L 253.710744 202.105785 
L 258.834711 200.8319 
L 263.958678 199.672187 
L 269.082645 198.626786 
L 274.206612 197.694897 
L 279.330579 196.874903 
L 284.454545 196.16447 
L 289.578512 195.560653 
L 294.702479 195.05999 
L 299.826446 194.658591 
L 304.950413 194.352221 
L 310.07438 194.136371 
L 315.198347 194.00633 
L 320.322314 193.957241 
L 325.446281 193.984161 
L 330.570248 194.082105 
L 335.694215 194.246092 
L 340.818182 194.471181 
L 345.942149 194.752501 
L 351.066116 195.085284 
L 356.190083 195.464886 
L 361.31405 195.886804 
L 366.438017 196.346694 
L 371.561983 196.840388 
L 376.68595 197.363895 
L 381.809917 197.913417 
L 386.933884 198.485347 
L 392.057851 199.076278 
L 397.181818 199.682997 
L 402.305785 200.302489 
L 407.429752 200.931937 
L 412.553719 201.568713 
L 417.677686 202.210379 
L 422.801653 202.85468 
L 427.92562 203.499537 
L 433.049587 204.143044 
L 438.173554 204.783459 
L 443.297521 205.4192 
L 448.421488 206.048832 
L 453.545455 206.671065 
L 458.669421 207.284747 
L 463.793388 207.888852 
L 468.917355 208.482475 
L 474.041322 209.064827 
L 479.165289 209.635223 
L 484.289256 210.193081 
L 489.413223 210.737909 
L 494.53719 211.269302 
L 499.661157 211.786936 
L 504.785124 212.290559 
L 509.909091 212.779989 
L 515.033058 213.255103 
L 520.157025 213.715839 
L 525.280992 214.162184 
L 530.404959 214.594172 
L 535.528926 215.01188 
L 540.652893 215.415425 
L 545.77686 215.804955 
L 550.900826 216.18065 
L 556.024793 216.542718 
L 561.14876 216.891387 
L 566.272727 217.226909 
L 571.396694 217.549552 
L 576.520661 217.8596 
L 581.644628 218.157347 
L 586.768595 218.443101 
L 591.892562 218.717176 
L 597.016529 218.979892 
L 602.140496 219.231573 
L 607.264463 219.47255 
L 612.38843 219.703151 
L 617.512397 219.923708 
L 622.636364 220.134549 
" style="fill:none;stroke:#777777;stroke-linecap:square;stroke-width:1.5;"/>
   </g>
   <g id="line2d_35">
    <path clip-path="url(#p906a00d465)" d="M 115.363636 242.116364 
L 120.487603 242.116032 
L 125.61157 242.111412 
L 130.735537 242.092894 
L 135.859504 242.046904 
L 140.983471 241.957537 
L 146.107438 241.807841 
L 151.231405 241.580819 
L 156.355372 241.260167 
L 161.479339 240.830829 
L 166.603306 240.279381 
L 171.727273 239.594281 
L 176.85124 238.766011 
L 181.975207 237.787134 
L 187.099174 236.652287 
L 192.22314 235.358114 
L 197.347107 233.903172 
L 202.471074 232.287802 
L 207.595041 230.513979 
L 212.719008 228.585157 
L 217.842975 226.506105 
L 222.966942 224.282738 
L 228.090909 221.921957 
L 233.214876 219.431489 
L 238.338843 216.819734 
L 243.46281 214.095625 
L 248.586777 211.268495 
L 253.710744 208.347952 
L 258.834711 205.343767 
L 263.958678 202.26578 
L 269.082645 199.123799 
L 274.206612 195.927528 
L 279.330579 192.686493 
L 284.454545 189.409985 
L 289.578512 186.107004 
L 294.702479 182.78622 
L 299.826446 179.455937 
L 304.950413 176.124062 
L 310.07438 172.798085 
L 315.198347 169.485066 
L 320.322314 166.19162 
L 325.446281 162.923914 
L 330.570248 159.687664 
L 335.694215 156.48814 
L 340.818182 153.330167 
L 345.942149 150.218136 
L 351.066116 147.156015 
L 356.190083 144.147361 
L 361.31405 141.195331 
L 366.438017 138.302702 
L 371.561983 135.471886 
L 376.68595 132.704945 
L 381.809917 130.00361 
L 386.933884 127.369302 
L 392.057851 124.803146 
L 397.181818 122.305992 
L 402.305785 119.878433 
L 407.429752 117.52082 
L 412.553719 115.233284 
L 417.677686 113.01575 
L 422.801653 110.867953 
L 427.92562 108.789459 
L 433.049587 106.779675 
L 438.173554 104.837864 
L 443.297521 102.963166 
L 448.421488 101.1546 
L 453.545455 99.41109 
L 458.669421 97.731464 
L 463.793388 96.114477 
L 468.917355 94.558813 
L 474.041322 93.0631 
L 479.165289 91.625916 
L 484.289256 90.245802 
L 489.413223 88.921266 
L 494.53719 87.650792 
L 499.661157 86.432848 
L 504.785124 85.265889 
L 509.909091 84.148367 
L 515.033058 83.078734 
L 520.157025 82.055446 
L 525.280992 81.076969 
L 530.404959 80.141784 
L 535.528926 79.248386 
L 540.652893 78.395291 
L 545.77686 77.581039 
L 550.900826 76.804194 
L 556.024793 76.063346 
L 561.14876 75.357117 
L 566.272727 74.684156 
L 571.396694 74.043146 
L 576.520661 73.432802 
L 581.644628 72.851875 
L 586.768595 72.299147 
L 591.892562 71.773436 
L 597.016529 71.273596 
L 602.140496 70.798517 
L 607.264463 70.347122 
L 612.38843 69.918371 
L 617.512397 69.511258 
L 622.636364 69.124813 
" style="fill:none;stroke:#fbc15e;stroke-linecap:square;stroke-width:1.5;"/>
   </g>
   <g id="patch_3">
    <path d="M 90 252 
L 90 34.56 
" style="fill:none;stroke:#ffffff;stroke-linecap:square;stroke-linejoin:miter;"/>
   </g>
   <g id="patch_4">
    <path d="M 648 252 
L 648 34.56 
" style="fill:none;stroke:#ffffff;stroke-linecap:square;stroke-linejoin:miter;"/>
   </g>
   <g id="patch_5">
    <path d="M 90 252 
L 648 252 
" style="fill:none;stroke:#ffffff;stroke-linecap:square;stroke-linejoin:miter;"/>
   </g>
   <g id="patch_6">
    <path d="M 90 34.56 
L 648 34.56 
" style="fill:none;stroke:#ffffff;stroke-linecap:square;stroke-linejoin:miter;"/>
   </g>
   <g id="legend_1">
    <g id="patch_7">
     <path d="M 542.945312 181.475313 
L 641 181.475313 
Q 643 181.475313 643 179.475313 
L 643 107.084688 
Q 643 105.084688 641 105.084688 
L 542.945312 105.084688 
Q 540.945312 105.084688 540.945312 107.084688 
L 540.945312 179.475313 
Q 540.945312 181.475313 542.945312 181.475313 
z
" style="fill:#e5e5e5;opacity:0.8;stroke:#cccccc;stroke-linejoin:miter;stroke-width:0.5;"/>
    </g>
    <g id="line2d_36">
     <path d="M 544.945312 113.183125 
L 564.945312 113.183125 
" style="fill:none;stroke:#e24a33;stroke-linecap:square;stroke-width:1.5;"/>
    </g>
    <g id="line2d_37"/>
    <g id="text_20">
     <!-- H3O+ -->
     <g transform="translate(572.945312 116.683125)scale(0.1 -0.1)">
      <defs>
       <path d="M 9.8125 72.90625 
L 19.671875 72.90625 
L 19.671875 43.015625 
L 55.515625 43.015625 
L 55.515625 72.90625 
L 65.375 72.90625 
L 65.375 0 
L 55.515625 0 
L 55.515625 34.71875 
L 19.671875 34.71875 
L 19.671875 0 
L 9.8125 0 
z
" id="DejaVuSans-72"/>
       <path d="M 39.40625 66.21875 
Q 28.65625 66.21875 22.328125 58.203125 
Q 16.015625 50.203125 16.015625 36.375 
Q 16.015625 22.609375 22.328125 14.59375 
Q 28.65625 6.59375 39.40625 6.59375 
Q 50.140625 6.59375 56.421875 14.59375 
Q 62.703125 22.609375 62.703125 36.375 
Q 62.703125 50.203125 56.421875 58.203125 
Q 50.140625 66.21875 39.40625 66.21875 
z
M 39.40625 74.21875 
Q 54.734375 74.21875 63.90625 63.9375 
Q 73.09375 53.65625 73.09375 36.375 
Q 73.09375 19.140625 63.90625 8.859375 
Q 54.734375 -1.421875 39.40625 -1.421875 
Q 24.03125 -1.421875 14.8125 8.828125 
Q 5.609375 19.09375 5.609375 36.375 
Q 5.609375 53.65625 14.8125 63.9375 
Q 24.03125 74.21875 39.40625 74.21875 
z
" id="DejaVuSans-79"/>
       <path d="M 46 62.703125 
L 46 35.5 
L 73.1875 35.5 
L 73.1875 27.203125 
L 46 27.203125 
L 46 0 
L 37.796875 0 
L 37.796875 27.203125 
L 10.59375 27.203125 
L 10.59375 35.5 
L 37.796875 35.5 
L 37.796875 62.703125 
z
" id="DejaVuSans-43"/>
      </defs>
      <use xlink:href="#DejaVuSans-72"/>
      <use x="75.195312" xlink:href="#DejaVuSans-51"/>
      <use x="138.818359" xlink:href="#DejaVuSans-79"/>
      <use x="217.529297" xlink:href="#DejaVuSans-43"/>
     </g>
    </g>
    <g id="line2d_38">
     <path d="M 544.945312 127.86125 
L 564.945312 127.86125 
" style="fill:none;stroke:#348abd;stroke-linecap:square;stroke-width:1.5;"/>
    </g>
    <g id="line2d_39"/>
    <g id="text_21">
     <!-- H3O+(H2O) -->
     <g transform="translate(572.945312 131.36125)scale(0.1 -0.1)">
      <use xlink:href="#DejaVuSans-72"/>
      <use x="75.195312" xlink:href="#DejaVuSans-51"/>
      <use x="138.818359" xlink:href="#DejaVuSans-79"/>
      <use x="217.529297" xlink:href="#DejaVuSans-43"/>
      <use x="301.318359" xlink:href="#DejaVuSans-40"/>
      <use x="340.332031" xlink:href="#DejaVuSans-72"/>
      <use x="415.527344" xlink:href="#DejaVuSans-50"/>
      <use x="479.150391" xlink:href="#DejaVuSans-79"/>
      <use x="557.861328" xlink:href="#DejaVuSans-41"/>
     </g>
    </g>
    <g id="line2d_40">
     <path d="M 544.945312 142.539375 
L 564.945312 142.539375 
" style="fill:none;stroke:#988ed5;stroke-linecap:square;stroke-width:1.5;"/>
    </g>
    <g id="line2d_41"/>
    <g id="text_22">
     <!-- H3O+(H2O)2 -->
     <g transform="translate(572.945312 146.039375)scale(0.1 -0.1)">
      <use xlink:href="#DejaVuSans-72"/>
      <use x="75.195312" xlink:href="#DejaVuSans-51"/>
      <use x="138.818359" xlink:href="#DejaVuSans-79"/>
      <use x="217.529297" xlink:href="#DejaVuSans-43"/>
      <use x="301.318359" xlink:href="#DejaVuSans-40"/>
      <use x="340.332031" xlink:href="#DejaVuSans-72"/>
      <use x="415.527344" xlink:href="#DejaVuSans-50"/>
      <use x="479.150391" xlink:href="#DejaVuSans-79"/>
      <use x="557.861328" xlink:href="#DejaVuSans-41"/>
      <use x="596.875" xlink:href="#DejaVuSans-50"/>
     </g>
    </g>
    <g id="line2d_42">
     <path d="M 544.945312 157.2175 
L 564.945312 157.2175 
" style="fill:none;stroke:#777777;stroke-linecap:square;stroke-width:1.5;"/>
    </g>
    <g id="line2d_43"/>
    <g id="text_23">
     <!-- H3O+(H2O)3 -->
     <g transform="translate(572.945312 160.7175)scale(0.1 -0.1)">
      <use xlink:href="#DejaVuSans-72"/>
      <use x="75.195312" xlink:href="#DejaVuSans-51"/>
      <use x="138.818359" xlink:href="#DejaVuSans-79"/>
      <use x="217.529297" xlink:href="#DejaVuSans-43"/>
      <use x="301.318359" xlink:href="#DejaVuSans-40"/>
      <use x="340.332031" xlink:href="#DejaVuSans-72"/>
      <use x="415.527344" xlink:href="#DejaVuSans-50"/>
      <use x="479.150391" xlink:href="#DejaVuSans-79"/>
      <use x="557.861328" xlink:href="#DejaVuSans-41"/>
      <use x="596.875" xlink:href="#DejaVuSans-51"/>
     </g>
    </g>
    <g id="line2d_44">
     <path d="M 544.945312 171.895625 
L 564.945312 171.895625 
" style="fill:none;stroke:#fbc15e;stroke-linecap:square;stroke-width:1.5;"/>
    </g>
    <g id="line2d_45"/>
    <g id="text_24">
     <!-- H3O+(H2O)4 -->
     <g transform="translate(572.945312 175.395625)scale(0.1 -0.1)">
      <use xlink:href="#DejaVuSans-72"/>
      <use x="75.195312" xlink:href="#DejaVuSans-51"/>
      <use x="138.818359" xlink:href="#DejaVuSans-79"/>
      <use x="217.529297" xlink:href="#DejaVuSans-43"/>
      <use x="301.318359" xlink:href="#DejaVuSans-40"/>
      <use x="340.332031" xlink:href="#DejaVuSans-72"/>
      <use x="415.527344" xlink:href="#DejaVuSans-50"/>
      <use x="479.150391" xlink:href="#DejaVuSans-79"/>
      <use x="557.861328" xlink:href="#DejaVuSans-41"/>
      <use x="596.875" xlink:href="#DejaVuSans-52"/>
     </g>
    </g>
   </g>
  </g>
 </g>
 <defs>
  <clipPath id="p906a00d465">
   <rect height="217.44" width="558" x="90" y="34.56"/>
  </clipPath>
 </defs>
</svg>
